<svg width="2000px" height="1182px"
 viewBox="0.00 0.00 2127.97 1257.94" xmlns="http://www.w3.org/2000/svg" xmlns:xlink="http://www.w3.org/1999/xlink">
<g id="graph0" class="graph" transform="scale(1.0 1.0) rotate(0) translate(4 1253.94)">
<title>ContextMapGraph</title>
<polygon fill="white" stroke="transparent" points="-4,4 -4,-1253.94 2123.97,-1253.94 2123.97,4 -4,4"/>
<!-- BancoLosAlpes -->
<g id="node1" class="node">
<title>BancoLosAlpes</title>
<polygon fill="none" stroke="black" stroke-width="2" points="921.7,-153.2 928.94,-154.18 936.01,-155.26 942.9,-156.45 949.57,-157.73 955.99,-159.12 962.15,-160.59 968.01,-162.15 973.55,-163.79 978.76,-165.5 983.6,-167.29 988.07,-169.14 992.15,-171.05 995.83,-173.01 999.09,-175.03 1001.92,-177.08 1004.33,-179.18 1006.29,-181.3 1007.82,-183.46 1008.92,-185.63 1009.57,-187.82 1009.8,-190.02 1009.6,-192.23 1008.98,-194.44 1007.96,-196.64 1006.54,-198.83 1004.74,-201 1002.57,-203.16 1000.05,-205.29 997.2,-207.38 994.04,-209.45 990.57,-211.47 986.83,-213.45 982.84,-215.38 978.6,-217.26 974.15,-219.08 969.51,-220.84 964.69,-222.54 959.71,-224.16 954.61,-225.72 949.38,-227.19 944.06,-228.59 938.66,-229.9 933.19,-231.12 927.68,-232.25 922.14,-233.29 916.58,-234.24 911.02,-235.08 905.47,-235.82 899.93,-236.46 894.42,-236.99 888.95,-237.41 883.53,-237.72 878.16,-237.92 872.85,-238 867.6,-237.97 862.43,-237.82 857.33,-237.56 852.3,-237.18 847.36,-236.69 842.51,-236.07 837.74,-235.35 833.06,-234.5 828.48,-233.55 823.99,-232.48 819.6,-231.3 815.32,-230.02 811.15,-228.63 807.08,-227.14 803.14,-225.55 799.32,-223.87 795.62,-222.1 792.07,-220.24 788.66,-218.3 785.4,-216.29 782.3,-214.2 779.37,-212.06 776.62,-209.85 774.07,-207.59 771.72,-205.29 769.58,-202.95 767.67,-200.58 766,-198.19 764.57,-195.78 763.41,-193.36 762.53,-190.94 761.93,-188.52 761.64,-186.12 761.65,-183.74 761.98,-181.39 762.64,-179.07 763.64,-176.8 764.98,-174.58 766.68,-172.42 768.73,-170.32 771.14,-168.3 773.91,-166.35 777.04,-164.48 780.54,-162.71 784.39,-161.03 788.59,-159.45 793.13,-157.98 798.01,-156.61 803.21,-155.36 808.72,-154.23 814.52,-153.22 820.61,-152.33 826.95,-151.56 833.53,-150.92 840.32,-150.41 847.31,-150.03 854.47,-149.78 861.76,-149.66 869.17,-149.67 876.67,-149.8 884.21,-150.06 891.78,-150.45 899.35,-150.96 906.88,-151.59 914.34,-152.34 921.7,-153.2"/>
<text text-anchor="middle" x="880.22" y="-190.65" font-family="sans-serif" font-size="16.00">BancoLosAlpes</text>
</g>
<!-- Inbound -->
<g id="node2" class="node">
<title>Inbound</title>
<polygon fill="none" stroke="black" stroke-width="2" points="1457.5,-952 1453.03,-953.4 1448.47,-954.69 1443.87,-955.85 1439.22,-956.89 1434.55,-957.79 1429.88,-958.56 1425.22,-959.19 1420.59,-959.68 1416,-960.03 1411.48,-960.23 1407.04,-960.28 1402.69,-960.18 1398.44,-959.93 1394.3,-959.53 1390.3,-958.98 1386.43,-958.29 1382.71,-957.46 1379.15,-956.48 1375.75,-955.37 1372.51,-954.12 1369.46,-952.75 1366.58,-951.25 1363.88,-949.64 1361.37,-947.91 1359.05,-946.08 1356.92,-944.15 1354.97,-942.14 1353.21,-940.04 1351.64,-937.86 1350.25,-935.63 1349.05,-933.33 1348.02,-930.98 1347.18,-928.6 1346.5,-926.18 1346,-923.74 1345.67,-921.28 1345.5,-918.82 1345.49,-916.35 1345.64,-913.9 1345.95,-911.47 1346.4,-909.06 1347,-906.68 1347.75,-904.34 1348.64,-902.05 1349.66,-899.81 1350.83,-897.63 1352.13,-895.52 1353.57,-893.47 1355.13,-891.5 1356.83,-889.6 1358.66,-887.78 1360.62,-886.06 1362.7,-884.42 1364.91,-882.87 1367.25,-881.41 1369.71,-880.05 1372.3,-878.78 1375.01,-877.62 1377.83,-876.55 1380.78,-875.58 1383.85,-874.72 1387.03,-873.95 1390.32,-873.29 1393.72,-872.72 1397.22,-872.25 1400.82,-871.89 1404.51,-871.62 1408.3,-871.45 1412.16,-871.38 1416.09,-871.4 1420.09,-871.52 1424.14,-871.73 1428.24,-872.04 1432.37,-872.43 1436.53,-872.92 1440.7,-873.5 1444.86,-874.17 1449.01,-874.92 1453.14,-875.76 1457.22,-876.69 1461.24,-877.7 1465.19,-878.79 1469.05,-879.97 1472.81,-881.22 1476.45,-882.56 1479.96,-883.96 1483.32,-885.45 1486.51,-887.01 1489.53,-888.64 1492.35,-890.34 1494.97,-892.1 1497.36,-893.93 1499.53,-895.82 1501.45,-897.77 1503.12,-899.77 1504.52,-901.82 1505.66,-903.92 1506.51,-906.06 1507.08,-908.24 1507.37,-910.45 1507.36,-912.7 1507.06,-914.96 1506.46,-917.24 1505.57,-919.53 1504.39,-921.83 1502.93,-924.12 1501.18,-926.4 1499.16,-928.67 1496.87,-930.92 1494.32,-933.14 1491.53,-935.31 1488.5,-937.45 1485.25,-939.53 1481.79,-941.55 1478.13,-943.5 1474.3,-945.38 1470.3,-947.18 1466.16,-948.88 1461.89,-950.5 1457.5,-952"/>
<text text-anchor="middle" x="1420.22" y="-909.59" font-family="sans-serif" font-size="16.00">Inbound</text>
</g>
<!-- ManejoInventariosYBodegas -->
<g id="node3" class="node">
<title>ManejoInventariosYBodegas</title>
<polygon fill="none" stroke="black" stroke-width="2" points="1148.79,-741.29 1156.5,-739.03 1164.58,-736.86 1173,-734.79 1181.72,-732.82 1190.71,-730.97 1199.94,-729.25 1209.38,-727.65 1219,-726.19 1228.76,-724.88 1238.63,-723.71 1248.58,-722.7 1258.58,-721.84 1268.61,-721.14 1278.62,-720.61 1288.61,-720.24 1298.53,-720.03 1308.36,-719.99 1318.08,-720.11 1327.68,-720.39 1337.11,-720.83 1346.37,-721.42 1355.44,-722.17 1364.3,-723.07 1372.93,-724.1 1381.31,-725.28 1389.44,-726.58 1397.3,-728.01 1404.87,-729.55 1412.15,-731.21 1419.12,-732.96 1425.78,-734.81 1432.12,-736.74 1438.12,-738.74 1443.79,-740.82 1449.11,-742.95 1454.07,-745.13 1458.68,-747.36 1462.92,-749.62 1466.79,-751.9 1470.28,-754.2 1473.38,-756.51 1476.1,-758.83 1478.42,-761.14 1480.34,-763.43 1481.86,-765.71 1482.97,-767.97 1483.66,-770.2 1483.93,-772.39 1483.77,-774.54 1483.19,-776.65 1482.17,-778.72 1480.72,-780.73 1478.82,-782.69 1476.49,-784.6 1473.71,-786.44 1470.48,-788.23 1466.81,-789.95 1462.69,-791.61 1458.13,-793.21 1453.13,-794.74 1447.69,-796.2 1441.83,-797.6 1435.53,-798.93 1428.83,-800.19 1421.72,-801.38 1414.21,-802.5 1406.33,-803.55 1398.08,-804.53 1389.48,-805.44 1380.56,-806.28 1371.33,-807.04 1361.81,-807.73 1352.03,-808.34 1342.01,-808.87 1331.78,-809.33 1321.38,-809.71 1310.83,-810 1300.16,-810.21 1289.4,-810.34 1278.6,-810.38 1267.78,-810.33 1256.98,-810.18 1246.25,-809.95 1235.6,-809.61 1225.09,-809.18 1214.75,-808.65 1204.62,-808.02 1194.74,-807.29 1185.13,-806.45 1175.85,-805.5 1166.91,-804.45 1158.36,-803.3 1150.23,-802.03 1142.55,-800.66 1135.35,-799.19 1128.66,-797.61 1122.5,-795.93 1116.89,-794.15 1111.86,-792.27 1107.42,-790.3 1103.6,-788.24 1100.4,-786.1 1097.83,-783.88 1095.91,-781.58 1094.64,-779.21 1094.01,-776.79 1094.04,-774.31 1094.72,-771.79 1096.03,-769.23 1097.98,-766.64 1100.56,-764.03 1103.74,-761.41 1107.52,-758.79 1111.87,-756.18 1116.77,-753.59 1122.21,-751.03 1128.16,-748.51 1134.59,-746.04 1141.48,-743.63 1148.79,-741.29"/>
<text text-anchor="middle" x="1299.22" y="-764.82" font-family="sans-serif" font-size="16.00">ManejoInventariosYBodegas</text>
</g>
<!-- Inbound&#45;&gt;ManejoInventariosYBodegas -->
<g id="edge1" class="edge">
<title>Inbound&#45;&gt;ManejoInventariosYBodegas</title>
<path fill="none" stroke="black" stroke-width="2" d="M1387.48,-873.75C1370.54,-853.77 1349.9,-829.41 1332.84,-809.28"/>
<text text-anchor="middle" x="1439.72" y="-838.84" font-family="sans-serif" font-size="12.00"> &#160;&#160;&#160;&#160;&#160;&#160;&#160;&#160;&#160;&#160;&#160;&#160;&#160;&#160;&#160;&#160;&#160;&#160;&#160;&#160;&#160;&#160;&#160;&#160;&#160;&#160;&#160;&#160;&#160;&#160;&#160;&#160;&#160;&#160;&#160;&#160;&#160;&#160;&#160;</text>
<polygon fill="white" stroke="transparent" points="1313.84,-799.28 1313.84,-818.28 1329.84,-818.28 1329.84,-799.28 1313.84,-799.28"/>
<polyline fill="none" stroke="black" points="1329.84,-799.28 1329.84,-818.28 "/>
<text text-anchor="start" x="1316.84" y="-805.68" font-family="sans-serif" font-size="12.00">D</text>
<polygon fill="white" stroke="transparent" points="1329.84,-799.28 1329.84,-818.28 1351.84,-818.28 1351.84,-799.28 1329.84,-799.28"/>
<polygon fill="none" stroke="black" points="1329.84,-799.28 1329.84,-818.28 1351.84,-818.28 1351.84,-799.28 1329.84,-799.28"/>
<text text-anchor="start" x="1332.84" y="-805.68" font-family="sans-serif" font-size="12.00">CF</text>
<polygon fill="white" stroke="transparent" points="1380.48,-864.75 1380.48,-881.75 1394.48,-881.75 1394.48,-864.75 1380.48,-864.75"/>
<text text-anchor="start" x="1382.48" y="-870.15" font-family="sans-serif" font-size="12.00">U</text>
</g>
<!-- Outbound -->
<g id="node4" class="node">
<title>Outbound</title>
<polygon fill="none" stroke="black" stroke-width="2" points="1445,-670.61 1439.19,-670.87 1433.41,-671.01 1427.66,-671.03 1421.98,-670.91 1416.38,-670.68 1410.89,-670.32 1405.53,-669.83 1400.32,-669.22 1395.28,-668.49 1390.42,-667.64 1385.77,-666.67 1381.33,-665.58 1377.13,-664.38 1373.17,-663.07 1369.46,-661.65 1366.02,-660.13 1362.84,-658.51 1359.95,-656.8 1357.34,-655 1355.02,-653.12 1352.98,-651.15 1351.23,-649.12 1349.77,-647.02 1348.59,-644.86 1347.69,-642.64 1347.07,-640.38 1346.71,-638.08 1346.62,-635.75 1346.79,-633.4 1347.2,-631.02 1347.85,-628.63 1348.72,-626.24 1349.82,-623.85 1351.12,-621.48 1352.62,-619.12 1354.3,-616.78 1356.16,-614.48 1358.19,-612.22 1360.37,-610 1362.7,-607.83 1365.16,-605.72 1367.75,-603.67 1370.46,-601.69 1373.28,-599.79 1376.2,-597.97 1379.21,-596.23 1382.31,-594.58 1385.49,-593.03 1388.75,-591.57 1392.08,-590.22 1395.48,-588.97 1398.94,-587.83 1402.46,-586.8 1406.04,-585.88 1409.67,-585.07 1413.35,-584.39 1417.08,-583.82 1420.86,-583.36 1424.67,-583.03 1428.53,-582.82 1432.43,-582.72 1436.37,-582.74 1440.33,-582.88 1444.33,-583.14 1448.35,-583.52 1452.39,-584 1456.45,-584.6 1460.51,-585.31 1464.58,-586.13 1468.65,-587.05 1472.7,-588.07 1476.73,-589.19 1480.73,-590.41 1484.69,-591.72 1488.61,-593.12 1492.45,-594.61 1496.23,-596.17 1499.91,-597.82 1503.5,-599.53 1506.97,-601.32 1510.31,-603.17 1513.5,-605.08 1516.54,-607.04 1519.41,-609.05 1522.09,-611.11 1524.56,-613.21 1526.82,-615.34 1528.85,-617.51 1530.63,-619.69 1532.16,-621.9 1533.41,-624.12 1534.39,-626.35 1535.08,-628.58 1535.46,-630.81 1535.54,-633.03 1535.3,-635.24 1534.74,-637.43 1533.86,-639.59 1532.65,-641.73 1531.11,-643.83 1529.25,-645.89 1527.07,-647.9 1524.56,-649.86 1521.75,-651.76 1518.62,-653.6 1515.21,-655.37 1511.5,-657.07 1507.53,-658.7 1503.3,-660.24 1498.82,-661.69 1494.12,-663.05 1489.21,-664.32 1484.12,-665.49 1478.85,-666.56 1473.44,-667.52 1467.91,-668.37 1462.27,-669.1 1456.56,-669.72 1450.79,-670.23 1445,-670.61"/>
<text text-anchor="middle" x="1438.22" y="-622.79" font-family="sans-serif" font-size="16.00">Outbound</text>
</g>
<!-- Inbound&#45;&gt;Outbound -->
<g id="edge2" class="edge">
<title>Inbound&#45;&gt;Outbound</title>
<path fill="none" stroke="black" stroke-width="2" d="M1482.37,-884.92C1496.87,-875.48 1510.59,-863.43 1519.22,-848.44 1554.66,-786.9 1559.11,-751.75 1526.22,-688.81 1520.53,-677.92 1511.93,-668.58 1502.29,-660.71"/>
<text text-anchor="middle" x="1591.22" y="-765.52" font-family="sans-serif" font-size="12.00">Shared Kernel</text>
</g>
<!-- ManejoInventariosYBodegas&#45;&gt;Outbound -->
<g id="edge3" class="edge">
<title>ManejoInventariosYBodegas&#45;&gt;Outbound</title>
<path fill="none" stroke="black" stroke-width="2" d="M1343.58,-721.12C1353.9,-710.44 1364.89,-699.18 1375.22,-688.81 1381.79,-682.21 1388.8,-675.29 1395.68,-668.56"/>
<text text-anchor="middle" x="1450.72" y="-692.21" font-family="sans-serif" font-size="12.00"> &#160;&#160;&#160;&#160;&#160;&#160;&#160;&#160;&#160;&#160;&#160;&#160;&#160;&#160;&#160;&#160;&#160;&#160;&#160;&#160;&#160;&#160;&#160;&#160;&#160;&#160;&#160;&#160;&#160;&#160;&#160;&#160;&#160;&#160;&#160;&#160;&#160;&#160;&#160;</text>
<polygon fill="white" stroke="transparent" points="1376.68,-658.56 1376.68,-677.56 1392.68,-677.56 1392.68,-658.56 1376.68,-658.56"/>
<polyline fill="none" stroke="black" points="1392.68,-658.56 1392.68,-677.56 "/>
<text text-anchor="start" x="1379.68" y="-664.96" font-family="sans-serif" font-size="12.00">D</text>
<polygon fill="white" stroke="transparent" points="1392.68,-658.56 1392.68,-677.56 1414.68,-677.56 1414.68,-658.56 1392.68,-658.56"/>
<polygon fill="none" stroke="black" points="1392.68,-658.56 1392.68,-677.56 1414.68,-677.56 1414.68,-658.56 1392.68,-658.56"/>
<text text-anchor="start" x="1395.68" y="-664.96" font-family="sans-serif" font-size="12.00">CF</text>
<polygon fill="white" stroke="transparent" points="1336.58,-712.12 1336.58,-729.12 1350.58,-729.12 1350.58,-712.12 1336.58,-712.12"/>
<text text-anchor="start" x="1338.58" y="-717.52" font-family="sans-serif" font-size="12.00">U</text>
</g>
<!-- ServicioDeAlmacenamientoConTerceros -->
<g id="node12" class="node">
<title>ServicioDeAlmacenamientoConTerceros</title>
<polygon fill="none" stroke="black" stroke-width="2" points="757.32,-670.36 740.48,-670.27 723.76,-670.06 707.26,-669.73 691.03,-669.28 675.13,-668.71 659.63,-668.03 644.59,-667.23 630.06,-666.32 616.11,-665.3 602.77,-664.17 590.11,-662.93 578.14,-661.6 566.93,-660.16 556.49,-658.63 546.86,-657.01 538.05,-655.31 530.1,-653.52 523.02,-651.66 516.81,-649.73 511.47,-647.74 507.02,-645.68 503.45,-643.57 500.75,-641.42 498.9,-639.22 497.9,-636.98 497.72,-634.72 498.34,-632.43 499.74,-630.13 501.89,-627.82 504.76,-625.5 508.32,-623.19 512.54,-620.89 517.38,-618.6 522.81,-616.34 528.8,-614.1 535.3,-611.91 542.28,-609.75 549.71,-607.64 557.56,-605.58 565.78,-603.59 574.36,-601.66 583.25,-599.79 592.43,-598.01 601.87,-596.3 611.55,-594.68 621.43,-593.15 631.51,-591.71 641.75,-590.37 652.14,-589.13 662.67,-588 673.31,-586.97 684.06,-586.05 694.9,-585.25 705.82,-584.56 716.82,-583.98 727.88,-583.53 738.99,-583.19 750.15,-582.97 761.35,-582.87 772.58,-582.89 783.84,-583.03 795.12,-583.29 806.41,-583.66 817.69,-584.16 828.97,-584.76 840.22,-585.49 851.44,-586.32 862.61,-587.26 873.71,-588.31 884.72,-589.46 895.62,-590.71 906.4,-592.06 917.02,-593.5 927.46,-595.03 937.69,-596.64 947.67,-598.33 957.39,-600.1 966.8,-601.94 975.87,-603.85 984.56,-605.81 992.83,-607.83 1000.65,-609.9 1007.97,-612.02 1014.77,-614.17 1020.99,-616.36 1026.6,-618.58 1031.57,-620.81 1035.85,-623.07 1039.41,-625.33 1042.22,-627.59 1044.25,-629.86 1045.46,-632.11 1045.84,-634.35 1045.35,-636.57 1043.99,-638.76 1041.74,-640.92 1038.57,-643.05 1034.5,-645.13 1029.51,-647.16 1023.61,-649.13 1016.8,-651.05 1009.09,-652.9 1000.51,-654.68 991.07,-656.38 980.8,-658.01 969.72,-659.55 957.88,-661.01 945.32,-662.37 932.07,-663.63 918.18,-664.8 903.72,-665.86 888.73,-666.81 873.26,-667.66 857.4,-668.39 841.18,-669.01 824.69,-669.52 807.99,-669.91 791.15,-670.18 774.24,-670.33 757.32,-670.36"/>
<text text-anchor="middle" x="769.22" y="-622.79" font-family="sans-serif" font-size="16.00">ServicioDeAlmacenamientoConTerceros</text>
</g>
<!-- ManejoInventariosYBodegas&#45;&gt;ServicioDeAlmacenamientoConTerceros -->
<g id="edge4" class="edge">
<title>ManejoInventariosYBodegas&#45;&gt;ServicioDeAlmacenamientoConTerceros</title>
<path fill="none" stroke="black" stroke-width="2" d="M1173.95,-734.53C1095.29,-713.74 993.63,-686.88 911.87,-665.28"/>
<text text-anchor="middle" x="1125.72" y="-692.21" font-family="sans-serif" font-size="12.00"> &#160;&#160;&#160;&#160;&#160;&#160;&#160;&#160;&#160;&#160;&#160;&#160;&#160;&#160;&#160;&#160;&#160;&#160;&#160;&#160;&#160;&#160;&#160;&#160;&#160;&#160;&#160;&#160;&#160;&#160;&#160;&#160;&#160;&#160;&#160;&#160;&#160;&#160;&#160;</text>
<polygon fill="white" stroke="transparent" points="904.87,-656.28 904.87,-673.28 918.87,-673.28 918.87,-656.28 904.87,-656.28"/>
<text text-anchor="start" x="906.87" y="-661.68" font-family="sans-serif" font-size="12.00">D</text>
<polygon fill="white" stroke="transparent" points="1166.95,-725.53 1166.95,-742.53 1180.95,-742.53 1180.95,-725.53 1166.95,-725.53"/>
<text text-anchor="start" x="1168.95" y="-730.93" font-family="sans-serif" font-size="12.00">U</text>
</g>
<!-- Logistica -->
<g id="node5" class="node">
<title>Logistica</title>
<polygon fill="none" stroke="black" stroke-width="2" points="1509.64,-506.19 1507.05,-508.7 1504.28,-511.13 1501.35,-513.47 1498.25,-515.72 1495,-517.87 1491.62,-519.91 1488.11,-521.82 1484.49,-523.6 1480.76,-525.25 1476.94,-526.75 1473.05,-528.11 1469.08,-529.31 1465.06,-530.35 1461,-531.24 1456.9,-531.96 1452.79,-532.52 1448.65,-532.91 1444.52,-533.14 1440.4,-533.2 1436.29,-533.1 1432.21,-532.85 1428.17,-532.43 1424.18,-531.86 1420.24,-531.14 1416.36,-530.28 1412.55,-529.28 1408.82,-528.15 1405.18,-526.89 1401.63,-525.52 1398.17,-524.03 1394.82,-522.45 1391.59,-520.76 1388.47,-518.99 1385.47,-517.15 1382.6,-515.23 1379.87,-513.25 1377.27,-511.21 1374.83,-509.13 1372.52,-507.01 1370.38,-504.86 1368.39,-502.69 1366.57,-500.5 1364.91,-498.3 1363.43,-496.1 1362.12,-493.9 1360.99,-491.71 1360.04,-489.54 1359.29,-487.38 1358.72,-485.25 1358.34,-483.14 1358.17,-481.06 1358.19,-479.02 1358.41,-477.02 1358.83,-475.05 1359.46,-473.13 1360.3,-471.25 1361.34,-469.42 1362.59,-467.63 1364.04,-465.89 1365.7,-464.2 1367.56,-462.56 1369.62,-460.97 1371.88,-459.44 1374.34,-457.95 1376.99,-456.52 1379.82,-455.15 1382.83,-453.83 1386.02,-452.57 1389.38,-451.37 1392.89,-450.22 1396.56,-449.14 1400.37,-448.12 1404.31,-447.17 1408.37,-446.29 1412.55,-445.47 1416.82,-444.73 1421.18,-444.06 1425.61,-443.47 1430.11,-442.97 1434.65,-442.54 1439.22,-442.21 1443.81,-441.97 1448.41,-441.82 1452.99,-441.77 1457.55,-441.82 1462.06,-441.98 1466.51,-442.24 1470.89,-442.61 1475.19,-443.1 1479.38,-443.7 1483.45,-444.42 1487.39,-445.26 1491.19,-446.22 1494.83,-447.3 1498.3,-448.5 1501.58,-449.82 1504.67,-451.27 1507.56,-452.83 1510.23,-454.5 1512.67,-456.29 1514.89,-458.19 1516.87,-460.19 1518.6,-462.3 1520.09,-464.5 1521.32,-466.79 1522.29,-469.17 1523.01,-471.62 1523.47,-474.13 1523.66,-476.71 1523.6,-479.34 1523.28,-482.01 1522.71,-484.71 1521.89,-487.43 1520.82,-490.16 1519.52,-492.9 1517.98,-495.62 1516.21,-498.32 1514.23,-500.99 1512.03,-503.62 1509.64,-506.19"/>
<text text-anchor="middle" x="1438.22" y="-480.73" font-family="sans-serif" font-size="16.00">Logistica</text>
</g>
<!-- Outbound&#45;&gt;Logistica -->
<g id="edge5" class="edge">
<title>Outbound&#45;&gt;Logistica</title>
<path fill="none" stroke="black" stroke-width="2" d="M1438.22,-582.8C1438.22,-567.2 1438.22,-549.45 1438.22,-533.43"/>
<text text-anchor="middle" x="1513.72" y="-554.77" font-family="sans-serif" font-size="12.00"> &#160;&#160;&#160;&#160;&#160;&#160;&#160;&#160;&#160;&#160;&#160;&#160;&#160;&#160;&#160;&#160;&#160;&#160;&#160;&#160;&#160;&#160;&#160;&#160;&#160;&#160;&#160;&#160;&#160;&#160;&#160;&#160;&#160;&#160;&#160;&#160;&#160;&#160;&#160;</text>
<polygon fill="white" stroke="transparent" points="1431.22,-524.43 1431.22,-541.43 1445.22,-541.43 1445.22,-524.43 1431.22,-524.43"/>
<text text-anchor="start" x="1433.22" y="-529.83" font-family="sans-serif" font-size="12.00">D</text>
<polygon fill="white" stroke="transparent" points="1431.22,-573.8 1431.22,-590.8 1445.22,-590.8 1445.22,-573.8 1431.22,-573.8"/>
<text text-anchor="start" x="1433.22" y="-579.2" font-family="sans-serif" font-size="12.00">U</text>
</g>
<!-- ServicioDeEnvios -->
<g id="node6" class="node">
<title>ServicioDeEnvios</title>
<polygon fill="none" stroke="black" stroke-width="2" points="1215.94,-337.16 1216.41,-340.04 1216.52,-342.91 1216.27,-345.75 1215.66,-348.56 1214.68,-351.32 1213.35,-354.02 1211.65,-356.65 1209.59,-359.21 1207.19,-361.67 1204.44,-364.05 1201.35,-366.31 1197.93,-368.47 1194.18,-370.51 1190.13,-372.42 1185.78,-374.2 1181.13,-375.85 1176.22,-377.36 1171.04,-378.74 1165.61,-379.96 1159.95,-381.05 1154.08,-381.99 1148.01,-382.78 1141.77,-383.43 1135.36,-383.94 1128.81,-384.31 1122.14,-384.53 1115.36,-384.63 1108.5,-384.59 1101.59,-384.43 1094.63,-384.14 1087.64,-383.74 1080.66,-383.22 1073.7,-382.6 1066.79,-381.87 1059.93,-381.05 1053.15,-380.13 1046.48,-379.13 1039.93,-378.05 1033.52,-376.89 1027.26,-375.67 1021.19,-374.38 1015.3,-373.02 1009.63,-371.62 1004.18,-370.16 998.97,-368.65 994.02,-367.1 989.34,-365.51 984.93,-363.88 980.82,-362.22 977.01,-360.52 973.51,-358.8 970.33,-357.05 967.48,-355.27 964.96,-353.47 962.78,-351.65 960.95,-349.8 959.46,-347.94 958.32,-346.06 957.54,-344.16 957.1,-342.24 957.02,-340.31 957.29,-338.37 957.91,-336.41 958.87,-334.44 960.17,-332.47 961.8,-330.49 963.77,-328.5 966.06,-326.52 968.66,-324.53 971.58,-322.55 974.79,-320.59 978.3,-318.63 982.08,-316.7 986.13,-314.78 990.45,-312.9 995.01,-311.05 999.8,-309.24 1004.82,-307.47 1010.04,-305.76 1015.46,-304.1 1021.07,-302.52 1026.84,-301 1032.76,-299.57 1038.82,-298.22 1045.01,-296.97 1051.3,-295.82 1057.68,-294.78 1064.14,-293.85 1070.66,-293.04 1077.22,-292.37 1083.81,-291.82 1090.41,-291.42 1097,-291.16 1103.57,-291.04 1110.11,-291.08 1116.58,-291.28 1122.99,-291.63 1129.3,-292.14 1135.52,-292.81 1141.61,-293.65 1147.56,-294.64 1153.36,-295.79 1158.99,-297.1 1164.44,-298.56 1169.69,-300.16 1174.72,-301.92 1179.53,-303.81 1184.1,-305.83 1188.41,-307.97 1192.46,-310.24 1196.23,-312.61 1199.7,-315.08 1202.88,-317.64 1205.75,-320.28 1208.29,-322.99 1210.5,-325.76 1212.38,-328.57 1213.92,-331.41 1215.1,-334.28 1215.94,-337.16"/>
<text text-anchor="middle" x="1086.22" y="-335.18" font-family="sans-serif" font-size="16.00">ServicioDeEnvios</text>
</g>
<!-- Logistica&#45;&gt;ServicioDeEnvios -->
<g id="edge6" class="edge">
<title>Logistica&#45;&gt;ServicioDeEnvios</title>
<path fill="none" stroke="black" stroke-width="2" d="M1374.48,-457.54C1319.4,-435.07 1239.15,-402.35 1177.3,-377.12"/>
<text text-anchor="middle" x="1329.22" y="-408.1" font-family="sans-serif" font-size="12.00">Customer/Supplier</text>
<polygon fill="white" stroke="transparent" points="1170.3,-368.12 1170.3,-385.12 1184.3,-385.12 1184.3,-368.12 1170.3,-368.12"/>
<text text-anchor="start" x="1172.3" y="-373.52" font-family="sans-serif" font-size="12.00">D</text>
<polygon fill="white" stroke="transparent" points="1367.48,-448.54 1367.48,-465.54 1381.48,-465.54 1381.48,-448.54 1367.48,-448.54"/>
<text text-anchor="start" x="1369.48" y="-453.94" font-family="sans-serif" font-size="12.00">U</text>
</g>
<!-- SistemaDeTrackingYMonitoreo -->
<g id="node8" class="node">
<title>SistemaDeTrackingYMonitoreo</title>
<polygon fill="none" stroke="black" stroke-width="2" points="1641.94,-341.01 1641.53,-343.88 1640.55,-346.74 1639.01,-349.55 1636.92,-352.33 1634.28,-355.04 1631.1,-357.68 1627.38,-360.25 1623.14,-362.73 1618.38,-365.11 1613.12,-367.39 1607.37,-369.55 1601.15,-371.59 1594.47,-373.51 1587.36,-375.29 1579.83,-376.93 1571.9,-378.43 1563.59,-379.79 1554.94,-381 1545.95,-382.06 1536.66,-382.97 1527.1,-383.73 1517.28,-384.34 1507.24,-384.8 1497.01,-385.12 1486.61,-385.29 1476.08,-385.32 1465.44,-385.21 1454.72,-384.97 1443.96,-384.61 1433.18,-384.12 1422.42,-383.51 1411.71,-382.79 1401.07,-381.96 1390.53,-381.04 1380.13,-380.01 1369.9,-378.9 1359.86,-377.71 1350.04,-376.44 1340.48,-375.1 1331.18,-373.7 1322.19,-372.24 1313.53,-370.72 1305.22,-369.15 1297.28,-367.54 1289.74,-365.89 1282.61,-364.2 1275.92,-362.48 1269.69,-360.73 1263.92,-358.96 1258.64,-357.16 1253.86,-355.35 1249.59,-353.51 1245.84,-351.66 1242.62,-349.8 1239.95,-347.92 1237.82,-346.04 1236.25,-344.14 1235.22,-342.23 1234.76,-340.32 1234.85,-338.4 1235.5,-336.48 1236.71,-334.56 1238.46,-332.63 1240.75,-330.71 1243.58,-328.78 1246.94,-326.86 1250.82,-324.95 1255.2,-323.04 1260.08,-321.15 1265.43,-319.27 1271.25,-317.4 1277.52,-315.57 1284.23,-313.75 1291.34,-311.97 1298.85,-310.23 1306.73,-308.52 1314.96,-306.86 1323.52,-305.26 1332.39,-303.71 1341.54,-302.23 1350.95,-300.81 1360.59,-299.48 1370.43,-298.23 1380.46,-297.07 1390.64,-296.01 1400.95,-295.05 1411.36,-294.2 1421.84,-293.47 1432.36,-292.86 1442.91,-292.38 1453.44,-292.04 1463.93,-291.83 1474.35,-291.77 1484.68,-291.85 1494.89,-292.08 1504.94,-292.47 1514.83,-293.01 1524.5,-293.7 1533.95,-294.55 1543.15,-295.56 1552.06,-296.72 1560.68,-298.04 1568.97,-299.5 1576.9,-301.11 1584.47,-302.87 1591.65,-304.76 1598.41,-306.78 1604.74,-308.92 1610.63,-311.18 1616.05,-313.55 1620.99,-316.02 1625.43,-318.58 1629.37,-321.22 1632.79,-323.93 1635.68,-326.7 1638.04,-329.51 1639.84,-332.36 1641.1,-335.24 1641.8,-338.12 1641.94,-341.01"/>
<text text-anchor="middle" x="1438.22" y="-335.18" font-family="sans-serif" font-size="16.00">SistemaDeTrackingYMonitoreo</text>
</g>
<!-- Logistica&#45;&gt;SistemaDeTrackingYMonitoreo -->
<g id="edge7" class="edge">
<title>Logistica&#45;&gt;SistemaDeTrackingYMonitoreo</title>
<path fill="none" stroke="black" stroke-width="2" d="M1438.22,-442.01C1438.22,-423.96 1438.22,-402.78 1438.22,-384.41"/>
<text text-anchor="middle" x="1513.72" y="-408.1" font-family="sans-serif" font-size="12.00"> &#160;&#160;&#160;&#160;&#160;&#160;&#160;&#160;&#160;&#160;&#160;&#160;&#160;&#160;&#160;&#160;&#160;&#160;&#160;&#160;&#160;&#160;&#160;&#160;&#160;&#160;&#160;&#160;&#160;&#160;&#160;&#160;&#160;&#160;&#160;&#160;&#160;&#160;&#160;</text>
<polygon fill="white" stroke="transparent" points="1415.22,-374.41 1415.22,-393.41 1431.22,-393.41 1431.22,-374.41 1415.22,-374.41"/>
<polyline fill="none" stroke="black" points="1431.22,-374.41 1431.22,-393.41 "/>
<text text-anchor="start" x="1418.22" y="-380.81" font-family="sans-serif" font-size="12.00">D</text>
<polygon fill="white" stroke="transparent" points="1431.22,-374.41 1431.22,-393.41 1461.22,-393.41 1461.22,-374.41 1431.22,-374.41"/>
<polygon fill="none" stroke="black" points="1431.22,-374.41 1431.22,-393.41 1461.22,-393.41 1461.22,-374.41 1431.22,-374.41"/>
<text text-anchor="start" x="1434.22" y="-380.81" font-family="sans-serif" font-size="12.00">ACL</text>
<polygon fill="white" stroke="transparent" points="1431.22,-433.01 1431.22,-450.01 1445.22,-450.01 1445.22,-433.01 1431.22,-433.01"/>
<text text-anchor="start" x="1433.22" y="-438.41" font-family="sans-serif" font-size="12.00">U</text>
</g>
<!-- PlaneacionDeRutas -->
<g id="node9" class="node">
<title>PlaneacionDeRutas</title>
<polygon fill="none" stroke="black" stroke-width="2" points="1737.12,-374.98 1729.47,-373.39 1722.08,-371.71 1715,-369.94 1708.25,-368.11 1701.85,-366.2 1695.83,-364.22 1690.23,-362.2 1685.06,-360.12 1680.33,-358 1676.08,-355.84 1672.32,-353.66 1669.06,-351.45 1666.3,-349.23 1664.07,-346.99 1662.37,-344.76 1661.2,-342.52 1660.56,-340.3 1660.44,-338.09 1660.86,-335.89 1661.79,-333.72 1663.23,-331.58 1665.17,-329.48 1667.59,-327.41 1670.48,-325.38 1673.82,-323.4 1677.6,-321.46 1681.78,-319.58 1686.35,-317.76 1691.29,-316 1696.57,-314.29 1702.16,-312.65 1708.03,-311.08 1714.17,-309.58 1720.54,-308.15 1727.12,-306.8 1733.88,-305.52 1740.79,-304.32 1747.83,-303.2 1754.97,-302.17 1762.18,-301.22 1769.44,-300.35 1776.73,-299.58 1784.03,-298.89 1791.31,-298.29 1798.55,-297.79 1805.74,-297.38 1812.86,-297.07 1819.89,-296.86 1826.81,-296.74 1833.62,-296.73 1840.3,-296.81 1846.84,-297 1853.24,-297.29 1859.47,-297.69 1865.55,-298.19 1871.45,-298.8 1877.17,-299.51 1882.71,-300.33 1888.07,-301.25 1893.24,-302.28 1898.22,-303.41 1903,-304.64 1907.59,-305.97 1911.98,-307.4 1916.17,-308.93 1920.15,-310.56 1923.93,-312.27 1927.49,-314.07 1930.85,-315.96 1933.99,-317.92 1936.91,-319.96 1939.6,-322.07 1942.07,-324.24 1944.3,-326.47 1946.29,-328.76 1948.03,-331.09 1949.52,-333.46 1950.74,-335.87 1951.69,-338.29 1952.37,-340.74 1952.76,-343.2 1952.85,-345.65 1952.64,-348.1 1952.11,-350.54 1951.26,-352.95 1950.09,-355.33 1948.58,-357.67 1946.72,-359.96 1944.52,-362.2 1941.96,-364.37 1939.04,-366.47 1935.76,-368.48 1932.12,-370.41 1928.12,-372.25 1923.75,-373.99 1919.02,-375.61 1913.94,-377.13 1908.51,-378.52 1902.74,-379.79 1896.64,-380.93 1890.22,-381.95 1883.49,-382.82 1876.48,-383.56 1869.21,-384.15 1861.68,-384.61 1853.92,-384.92 1845.96,-385.08 1837.82,-385.11 1829.53,-384.99 1821.11,-384.72 1812.6,-384.32 1804.03,-383.78 1795.42,-383.11 1786.82,-382.31 1778.25,-381.38 1769.75,-380.32 1761.36,-379.15 1753.1,-377.86 1745,-376.47 1737.12,-374.98"/>
<text text-anchor="middle" x="1817.22" y="-335.18" font-family="sans-serif" font-size="16.00">PlaneacionDeRutas</text>
</g>
<!-- Logistica&#45;&gt;PlaneacionDeRutas -->
<g id="edge8" class="edge">
<title>Logistica&#45;&gt;PlaneacionDeRutas</title>
<path fill="none" stroke="black" stroke-width="2" d="M1512.2,-455.51C1574.35,-431.97 1663.3,-398.28 1729.12,-373.35"/>
<text text-anchor="middle" x="1713.72" y="-408.1" font-family="sans-serif" font-size="12.00"> &#160;&#160;&#160;&#160;&#160;&#160;&#160;&#160;&#160;&#160;&#160;&#160;&#160;&#160;&#160;&#160;&#160;&#160;&#160;&#160;&#160;&#160;&#160;&#160;&#160;&#160;&#160;&#160;&#160;&#160;&#160;&#160;&#160;&#160;&#160;&#160;&#160;&#160;&#160;</text>
<polygon fill="white" stroke="transparent" points="1706.12,-363.35 1706.12,-382.35 1722.12,-382.35 1722.12,-363.35 1706.12,-363.35"/>
<polyline fill="none" stroke="black" points="1722.12,-363.35 1722.12,-382.35 "/>
<text text-anchor="start" x="1709.12" y="-369.75" font-family="sans-serif" font-size="12.00">D</text>
<polygon fill="white" stroke="transparent" points="1722.12,-363.35 1722.12,-382.35 1752.12,-382.35 1752.12,-363.35 1722.12,-363.35"/>
<polygon fill="none" stroke="black" points="1722.12,-363.35 1722.12,-382.35 1752.12,-382.35 1752.12,-363.35 1722.12,-363.35"/>
<text text-anchor="start" x="1725.12" y="-369.75" font-family="sans-serif" font-size="12.00">ACL</text>
<polygon fill="white" stroke="transparent" points="1505.2,-446.51 1505.2,-463.51 1519.2,-463.51 1519.2,-446.51 1505.2,-446.51"/>
<text text-anchor="start" x="1507.2" y="-451.91" font-family="sans-serif" font-size="12.00">U</text>
</g>
<!-- ServicioDeEnvios&#45;&gt;BancoLosAlpes -->
<g id="edge9" class="edge">
<title>ServicioDeEnvios&#45;&gt;BancoLosAlpes</title>
<path fill="none" stroke="black" stroke-width="2" d="M1031.02,-299.78C1000.39,-278.59 962.51,-252.39 932.38,-231.54"/>
<text text-anchor="middle" x="1065.72" y="-263.66" font-family="sans-serif" font-size="12.00"> &#160;&#160;&#160;&#160;&#160;&#160;&#160;&#160;&#160;&#160;&#160;&#160;&#160;&#160;&#160;&#160;&#160;&#160;&#160;&#160;&#160;&#160;&#160;&#160;&#160;&#160;&#160;&#160;&#160;&#160;&#160;&#160;&#160;&#160;&#160;&#160;&#160;&#160;&#160;</text>
<polygon fill="white" stroke="transparent" points="925.38,-222.54 925.38,-239.54 939.38,-239.54 939.38,-222.54 925.38,-222.54"/>
<text text-anchor="start" x="927.38" y="-227.94" font-family="sans-serif" font-size="12.00">D</text>
<polygon fill="white" stroke="transparent" points="996.02,-289.78 996.02,-308.78 1012.02,-308.78 1012.02,-289.78 996.02,-289.78"/>
<polyline fill="none" stroke="black" points="1012.02,-289.78 1012.02,-308.78 "/>
<text text-anchor="start" x="999.02" y="-296.18" font-family="sans-serif" font-size="12.00">U</text>
<polygon fill="white" stroke="transparent" points="1012.02,-289.78 1012.02,-308.78 1067.02,-308.78 1067.02,-289.78 1012.02,-289.78"/>
<polygon fill="none" stroke="black" points="1012.02,-289.78 1012.02,-308.78 1067.02,-308.78 1067.02,-289.78 1012.02,-289.78"/>
<text text-anchor="start" x="1015.02" y="-296.18" font-family="sans-serif" font-size="12.00">OHS, PL</text>
</g>
<!-- RestaurantesSupermercados -->
<g id="node7" class="node">
<title>RestaurantesSupermercados</title>
<polygon fill="none" stroke="black" stroke-width="2" points="1316.48,-235.42 1304.64,-236.51 1292.68,-237.47 1280.65,-238.31 1268.58,-239.03 1256.54,-239.61 1244.56,-240.06 1232.69,-240.37 1220.97,-240.54 1209.44,-240.57 1198.15,-240.46 1187.13,-240.21 1176.41,-239.81 1166.03,-239.27 1156.02,-238.59 1146.41,-237.78 1137.22,-236.82 1128.47,-235.74 1120.18,-234.53 1112.37,-233.19 1105.05,-231.72 1098.24,-230.15 1091.93,-228.46 1086.14,-226.67 1080.87,-224.78 1076.11,-222.8 1071.88,-220.74 1068.16,-218.6 1064.94,-216.39 1062.24,-214.12 1060.02,-211.8 1058.29,-209.43 1057.03,-207.03 1056.23,-204.59 1055.88,-202.14 1055.97,-199.68 1056.48,-197.21 1057.4,-194.75 1058.72,-192.3 1060.42,-189.87 1062.5,-187.47 1064.93,-185.1 1067.71,-182.78 1070.83,-180.5 1074.27,-178.28 1078.03,-176.13 1082.1,-174.04 1086.47,-172.02 1091.13,-170.08 1096.08,-168.22 1101.32,-166.45 1106.82,-164.77 1112.6,-163.18 1118.65,-161.69 1124.97,-160.3 1131.54,-159.01 1138.37,-157.83 1145.45,-156.74 1152.79,-155.77 1160.37,-154.9 1168.19,-154.14 1176.24,-153.49 1184.53,-152.94 1193.03,-152.5 1201.75,-152.17 1210.66,-151.95 1219.77,-151.83 1229.06,-151.82 1238.5,-151.91 1248.1,-152.1 1257.82,-152.39 1267.64,-152.78 1277.56,-153.27 1287.53,-153.85 1297.54,-154.53 1307.56,-155.3 1317.55,-156.16 1327.5,-157.11 1337.36,-158.14 1347.1,-159.26 1356.69,-160.46 1366.09,-161.74 1375.27,-163.1 1384.19,-164.53 1392.81,-166.04 1401.1,-167.61 1409.01,-169.25 1416.51,-170.96 1423.57,-172.73 1430.14,-174.56 1436.2,-176.44 1441.71,-178.37 1446.65,-180.36 1450.98,-182.38 1454.67,-184.45 1457.71,-186.56 1460.08,-188.7 1461.74,-190.86 1462.69,-193.05 1462.93,-195.26 1462.42,-197.48 1461.19,-199.71 1459.21,-201.94 1456.5,-204.17 1453.05,-206.39 1448.89,-208.6 1444.02,-210.78 1438.45,-212.93 1432.22,-215.05 1425.33,-217.13 1417.83,-219.16 1409.73,-221.14 1401.08,-223.05 1391.9,-224.9 1382.24,-226.68 1372.14,-228.37 1361.63,-229.98 1350.77,-231.49 1339.59,-232.91 1328.14,-234.22 1316.48,-235.42"/>
<text text-anchor="middle" x="1245.22" y="-190.65" font-family="sans-serif" font-size="16.00">RestaurantesSupermercados</text>
</g>
<!-- ServicioDeEnvios&#45;&gt;RestaurantesSupermercados -->
<g id="edge10" class="edge">
<title>ServicioDeEnvios&#45;&gt;RestaurantesSupermercados</title>
<path fill="none" stroke="black" stroke-width="2" d="M1136.53,-292.88C1155.18,-276.16 1176.32,-257.21 1194.97,-240.5"/>
<text text-anchor="middle" x="1246.72" y="-263.66" font-family="sans-serif" font-size="12.00"> &#160;&#160;&#160;&#160;&#160;&#160;&#160;&#160;&#160;&#160;&#160;&#160;&#160;&#160;&#160;&#160;&#160;&#160;&#160;&#160;&#160;&#160;&#160;&#160;&#160;&#160;&#160;&#160;&#160;&#160;&#160;&#160;&#160;&#160;&#160;&#160;&#160;&#160;&#160;</text>
<polygon fill="white" stroke="transparent" points="1187.97,-231.5 1187.97,-248.5 1201.97,-248.5 1201.97,-231.5 1187.97,-231.5"/>
<text text-anchor="start" x="1189.97" y="-236.9" font-family="sans-serif" font-size="12.00">D</text>
<polygon fill="white" stroke="transparent" points="1101.53,-282.88 1101.53,-301.88 1117.53,-301.88 1117.53,-282.88 1101.53,-282.88"/>
<polyline fill="none" stroke="black" points="1117.53,-282.88 1117.53,-301.88 "/>
<text text-anchor="start" x="1104.53" y="-289.28" font-family="sans-serif" font-size="12.00">U</text>
<polygon fill="white" stroke="transparent" points="1117.53,-282.88 1117.53,-301.88 1172.53,-301.88 1172.53,-282.88 1117.53,-282.88"/>
<polygon fill="none" stroke="black" points="1117.53,-282.88 1117.53,-301.88 1172.53,-301.88 1172.53,-282.88 1117.53,-282.88"/>
<text text-anchor="start" x="1120.53" y="-289.28" font-family="sans-serif" font-size="12.00">OHS, PL</text>
</g>
<!-- ServicioEnvioConTerceros -->
<g id="node10" class="node">
<title>ServicioEnvioConTerceros</title>
<polygon fill="none" stroke="black" stroke-width="2" points="1645.78,-183.39 1648.54,-180.61 1651.75,-177.88 1655.42,-175.21 1659.51,-172.61 1664.02,-170.09 1668.94,-167.66 1674.25,-165.33 1679.93,-163.11 1685.97,-161.01 1692.34,-159.03 1699.04,-157.18 1706.03,-155.48 1713.31,-153.91 1720.85,-152.5 1728.62,-151.24 1736.62,-150.13 1744.81,-149.18 1753.18,-148.39 1761.71,-147.76 1770.36,-147.29 1779.13,-146.98 1787.98,-146.82 1796.9,-146.82 1805.86,-146.97 1814.84,-147.27 1823.82,-147.71 1832.77,-148.29 1841.68,-149 1850.52,-149.84 1859.27,-150.79 1867.91,-151.87 1876.41,-153.04 1884.77,-154.32 1892.94,-155.69 1900.93,-157.15 1908.69,-158.68 1916.23,-160.29 1923.51,-161.96 1930.52,-163.69 1937.25,-165.47 1943.66,-167.29 1949.75,-169.16 1955.51,-171.05 1960.91,-172.97 1965.93,-174.91 1970.58,-176.87 1974.83,-178.84 1978.66,-180.82 1982.08,-182.8 1985.07,-184.78 1987.61,-186.76 1989.71,-188.74 1991.34,-190.7 1992.52,-192.66 1993.22,-194.6 1993.45,-196.53 1993.2,-198.44 1992.47,-200.34 1991.27,-202.22 1989.59,-204.08 1987.43,-205.92 1984.79,-207.74 1981.69,-209.53 1978.13,-211.3 1974.11,-213.05 1969.65,-214.76 1964.76,-216.45 1959.44,-218.11 1953.71,-219.73 1947.58,-221.32 1941.08,-222.87 1934.21,-224.38 1927,-225.84 1919.46,-227.26 1911.62,-228.62 1903.49,-229.92 1895.11,-231.17 1886.49,-232.35 1877.66,-233.46 1868.64,-234.49 1859.47,-235.44 1850.16,-236.31 1840.74,-237.09 1831.25,-237.77 1821.71,-238.35 1812.14,-238.82 1802.59,-239.18 1793.07,-239.42 1783.61,-239.54 1774.25,-239.54 1765.01,-239.4 1755.93,-239.14 1747.01,-238.73 1738.3,-238.19 1729.82,-237.51 1721.6,-236.69 1713.65,-235.72 1706.01,-234.62 1698.69,-233.37 1691.72,-231.98 1685.11,-230.45 1678.89,-228.79 1673.07,-226.99 1667.67,-225.07 1662.71,-223.03 1658.19,-220.87 1654.13,-218.61 1650.55,-216.24 1647.44,-213.78 1644.81,-211.23 1642.68,-208.61 1641.04,-205.93 1639.9,-203.18 1639.26,-200.4 1639.12,-197.58 1639.48,-194.74 1640.32,-191.89 1641.66,-189.04 1643.48,-186.2 1645.78,-183.39"/>
<text text-anchor="middle" x="1817.22" y="-190.65" font-family="sans-serif" font-size="16.00">ServicioEnvioConTerceros</text>
</g>
<!-- PlaneacionDeRutas&#45;&gt;ServicioEnvioConTerceros -->
<g id="edge11" class="edge">
<title>PlaneacionDeRutas&#45;&gt;ServicioEnvioConTerceros</title>
<path fill="none" stroke="black" stroke-width="2" d="M1817.22,-296.75C1817.22,-278.67 1817.22,-257.42 1817.22,-239.07"/>
<text text-anchor="middle" x="1873.22" y="-263.66" font-family="sans-serif" font-size="12.00">Customer/Supplier</text>
<polygon fill="white" stroke="transparent" points="1810.22,-230.07 1810.22,-247.07 1824.22,-247.07 1824.22,-230.07 1810.22,-230.07"/>
<text text-anchor="start" x="1812.22" y="-235.47" font-family="sans-serif" font-size="12.00">D</text>
<polygon fill="white" stroke="transparent" points="1810.22,-287.75 1810.22,-304.75 1824.22,-304.75 1824.22,-287.75 1810.22,-287.75"/>
<text text-anchor="start" x="1812.22" y="-293.15" font-family="sans-serif" font-size="12.00">U</text>
</g>
<!-- ServicioDeIntegracionConServiciosDeEnvios -->
<g id="node11" class="node">
<title>ServicioDeIntegracionConServiciosDeEnvios</title>
<polygon fill="none" stroke="black" stroke-width="2" points="2039.34,-76.15 2027.95,-78.41 2016.02,-80.58 2003.59,-82.65 1990.72,-84.62 1977.44,-86.47 1963.81,-88.19 1949.87,-89.79 1935.67,-91.25 1921.26,-92.56 1906.69,-93.73 1891.99,-94.74 1877.22,-95.6 1862.42,-96.3 1847.63,-96.83 1832.9,-97.21 1818.25,-97.41 1803.73,-97.46 1789.37,-97.34 1775.21,-97.06 1761.27,-96.62 1747.6,-96.02 1734.21,-95.27 1721.13,-94.38 1708.39,-93.34 1696.01,-92.17 1684.01,-90.86 1672.41,-89.43 1661.23,-87.89 1650.48,-86.24 1640.19,-84.48 1630.35,-82.64 1621,-80.71 1612.13,-78.7 1603.77,-76.62 1595.91,-74.49 1588.58,-72.31 1581.78,-70.08 1575.52,-67.82 1569.81,-65.54 1564.66,-63.24 1560.07,-60.93 1556.06,-58.61 1552.63,-56.31 1549.79,-54.01 1547.55,-51.73 1545.92,-49.47 1544.9,-47.25 1544.5,-45.05 1544.73,-42.9 1545.59,-40.79 1547.09,-38.72 1549.24,-36.71 1552.03,-34.75 1555.48,-32.84 1559.59,-31 1564.35,-29.21 1569.78,-27.49 1575.86,-25.83 1582.59,-24.23 1589.97,-22.7 1598,-21.24 1606.67,-19.84 1615.95,-18.51 1625.86,-17.25 1636.36,-16.06 1647.44,-14.94 1659.08,-13.89 1671.26,-12.91 1683.95,-12 1697.13,-11.17 1710.76,-10.4 1724.81,-9.72 1739.26,-9.1 1754.04,-8.57 1769.14,-8.11 1784.5,-7.74 1800.09,-7.44 1815.84,-7.23 1831.72,-7.1 1847.67,-7.06 1863.64,-7.12 1879.58,-7.26 1895.44,-7.5 1911.15,-7.83 1926.67,-8.26 1941.94,-8.79 1956.9,-9.42 1971.49,-10.15 1985.68,-10.99 1999.39,-11.94 2012.58,-12.99 2025.2,-14.14 2037.21,-15.41 2048.55,-16.78 2059.18,-18.25 2069.06,-19.83 2078.16,-21.51 2086.44,-23.29 2093.87,-25.17 2100.42,-27.14 2106.06,-29.2 2110.79,-31.34 2114.58,-33.57 2117.41,-35.86 2119.29,-38.23 2120.21,-40.65 2120.17,-43.13 2119.18,-45.66 2117.23,-48.22 2114.35,-50.81 2110.55,-53.41 2105.85,-56.03 2100.28,-58.65 2093.85,-61.26 2086.61,-63.85 2078.58,-66.41 2069.8,-68.93 2060.3,-71.4 2050.14,-73.81 2039.34,-76.15"/>
<text text-anchor="middle" x="1817.22" y="-45.02" font-family="sans-serif" font-size="16.00">ServicioDeIntegracionConServiciosDeEnvios</text>
</g>
<!-- ServicioEnvioConTerceros&#45;&gt;ServicioDeIntegracionConServiciosDeEnvios -->
<g id="edge12" class="edge">
<title>ServicioEnvioConTerceros&#45;&gt;ServicioDeIntegracionConServiciosDeEnvios</title>
<path fill="none" stroke="black" stroke-width="2" d="M1817.22,-147.21C1817.22,-131.3 1817.22,-113.47 1817.22,-97.45"/>
<text text-anchor="middle" x="1892.72" y="-119.04" font-family="sans-serif" font-size="12.00"> &#160;&#160;&#160;&#160;&#160;&#160;&#160;&#160;&#160;&#160;&#160;&#160;&#160;&#160;&#160;&#160;&#160;&#160;&#160;&#160;&#160;&#160;&#160;&#160;&#160;&#160;&#160;&#160;&#160;&#160;&#160;&#160;&#160;&#160;&#160;&#160;&#160;&#160;&#160;</text>
<polygon fill="white" stroke="transparent" points="1794.22,-87.45 1794.22,-106.45 1810.22,-106.45 1810.22,-87.45 1794.22,-87.45"/>
<polyline fill="none" stroke="black" points="1810.22,-87.45 1810.22,-106.45 "/>
<text text-anchor="start" x="1797.22" y="-93.85" font-family="sans-serif" font-size="12.00">D</text>
<polygon fill="white" stroke="transparent" points="1810.22,-87.45 1810.22,-106.45 1840.22,-106.45 1840.22,-87.45 1810.22,-87.45"/>
<polygon fill="none" stroke="black" points="1810.22,-87.45 1810.22,-106.45 1840.22,-106.45 1840.22,-87.45 1810.22,-87.45"/>
<text text-anchor="start" x="1813.22" y="-93.85" font-family="sans-serif" font-size="12.00">ACL</text>
<polygon fill="white" stroke="transparent" points="1810.22,-138.21 1810.22,-155.21 1824.22,-155.21 1824.22,-138.21 1810.22,-138.21"/>
<text text-anchor="start" x="1812.22" y="-143.61" font-family="sans-serif" font-size="12.00">U</text>
</g>
<!-- Marketplace -->
<g id="node13" class="node">
<title>Marketplace</title>
<polygon fill="none" stroke="black" stroke-width="2" points="1517,-1045.14 1519.07,-1047.85 1520.85,-1050.59 1522.36,-1053.33 1523.56,-1056.07 1524.47,-1058.8 1525.06,-1061.51 1525.35,-1064.18 1525.32,-1066.8 1524.97,-1069.38 1524.3,-1071.89 1523.32,-1074.33 1522.02,-1076.69 1520.41,-1078.97 1518.49,-1081.16 1516.27,-1083.25 1513.75,-1085.23 1510.93,-1087.11 1507.84,-1088.87 1504.48,-1090.52 1500.86,-1092.05 1496.99,-1093.46 1492.88,-1094.75 1488.55,-1095.92 1484.02,-1096.97 1479.3,-1097.89 1474.4,-1098.69 1469.35,-1099.37 1464.15,-1099.94 1458.84,-1100.38 1453.42,-1100.72 1447.91,-1100.94 1442.34,-1101.05 1436.71,-1101.06 1431.06,-1100.97 1425.4,-1100.78 1419.75,-1100.49 1414.12,-1100.12 1408.53,-1099.65 1403.01,-1099.11 1397.56,-1098.48 1392.21,-1097.77 1386.97,-1096.99 1381.85,-1096.13 1376.87,-1095.21 1372.05,-1094.22 1367.39,-1093.17 1362.91,-1092.06 1358.62,-1090.88 1354.53,-1089.65 1350.65,-1088.36 1346.98,-1087.01 1343.54,-1085.61 1340.33,-1084.16 1337.36,-1082.65 1334.64,-1081.1 1332.16,-1079.49 1329.93,-1077.84 1327.95,-1076.13 1326.23,-1074.38 1324.76,-1072.58 1323.55,-1070.74 1322.6,-1068.85 1321.9,-1066.93 1321.45,-1064.96 1321.26,-1062.95 1321.31,-1060.91 1321.62,-1058.84 1322.16,-1056.74 1322.95,-1054.61 1323.97,-1052.46 1325.23,-1050.3 1326.71,-1048.12 1328.41,-1045.94 1330.33,-1043.75 1332.46,-1041.57 1334.8,-1039.4 1337.34,-1037.25 1340.08,-1035.12 1343,-1033.02 1346.11,-1030.96 1349.39,-1028.96 1352.84,-1027 1356.46,-1025.11 1360.23,-1023.29 1364.15,-1021.55 1368.21,-1019.9 1372.41,-1018.35 1376.73,-1016.9 1381.17,-1015.56 1385.71,-1014.33 1390.36,-1013.24 1395.1,-1012.27 1399.92,-1011.45 1404.81,-1010.77 1409.76,-1010.24 1414.76,-1009.86 1419.8,-1009.64 1424.87,-1009.58 1429.96,-1009.68 1435.05,-1009.94 1440.13,-1010.37 1445.19,-1010.97 1450.21,-1011.73 1455.19,-1012.65 1460.11,-1013.73 1464.95,-1014.97 1469.7,-1016.36 1474.35,-1017.9 1478.88,-1019.58 1483.28,-1021.4 1487.53,-1023.34 1491.62,-1025.4 1495.54,-1027.58 1499.27,-1029.86 1502.8,-1032.23 1506.11,-1034.69 1509.2,-1037.22 1512.05,-1039.81 1514.66,-1042.45 1517,-1045.14"/>
<text text-anchor="middle" x="1420.22" y="-1054.39" font-family="sans-serif" font-size="16.00">Marketplace</text>
</g>
<!-- Marketplace&#45;&gt;Inbound -->
<g id="edge13" class="edge">
<title>Marketplace&#45;&gt;Inbound</title>
<path fill="none" stroke="black" stroke-width="2" d="M1420.22,-1009.24C1420.22,-993.36 1420.22,-975.74 1420.22,-960.03"/>
<text text-anchor="middle" x="1495.72" y="-981.73" font-family="sans-serif" font-size="12.00"> &#160;&#160;&#160;&#160;&#160;&#160;&#160;&#160;&#160;&#160;&#160;&#160;&#160;&#160;&#160;&#160;&#160;&#160;&#160;&#160;&#160;&#160;&#160;&#160;&#160;&#160;&#160;&#160;&#160;&#160;&#160;&#160;&#160;&#160;&#160;&#160;&#160;&#160;&#160;</text>
<polygon fill="white" stroke="transparent" points="1397.22,-950.03 1397.22,-969.03 1413.22,-969.03 1413.22,-950.03 1397.22,-950.03"/>
<polyline fill="none" stroke="black" points="1413.22,-950.03 1413.22,-969.03 "/>
<text text-anchor="start" x="1400.22" y="-956.43" font-family="sans-serif" font-size="12.00">D</text>
<polygon fill="white" stroke="transparent" points="1413.22,-950.03 1413.22,-969.03 1443.22,-969.03 1443.22,-950.03 1413.22,-950.03"/>
<polygon fill="none" stroke="black" points="1413.22,-950.03 1413.22,-969.03 1443.22,-969.03 1443.22,-950.03 1413.22,-950.03"/>
<text text-anchor="start" x="1416.22" y="-956.43" font-family="sans-serif" font-size="12.00">ACL</text>
<polygon fill="white" stroke="transparent" points="1413.22,-1000.24 1413.22,-1017.24 1427.22,-1017.24 1427.22,-1000.24 1413.22,-1000.24"/>
<text text-anchor="start" x="1415.22" y="-1005.64" font-family="sans-serif" font-size="12.00">U</text>
</g>
<!-- Minoristas -->
<g id="node14" class="node">
<title>Minoristas</title>
<polygon fill="none" stroke="black" stroke-width="2" points="1503.04,-1208.06 1502.45,-1210.91 1501.62,-1213.72 1500.55,-1216.49 1499.24,-1219.21 1497.7,-1221.86 1495.93,-1224.43 1493.94,-1226.92 1491.74,-1229.32 1489.32,-1231.61 1486.7,-1233.78 1483.88,-1235.84 1480.86,-1237.77 1477.67,-1239.57 1474.31,-1241.23 1470.78,-1242.75 1467.1,-1244.12 1463.28,-1245.34 1459.32,-1246.41 1455.24,-1247.33 1451.05,-1248.09 1446.75,-1248.7 1442.38,-1249.16 1437.92,-1249.47 1433.4,-1249.63 1428.83,-1249.64 1424.22,-1249.51 1419.58,-1249.25 1414.92,-1248.85 1410.27,-1248.33 1405.62,-1247.68 1401,-1246.91 1396.42,-1246.04 1391.88,-1245.06 1387.41,-1243.98 1383,-1242.82 1378.68,-1241.56 1374.46,-1240.23 1370.35,-1238.83 1366.35,-1237.36 1362.49,-1235.82 1358.76,-1234.24 1355.19,-1232.6 1351.77,-1230.93 1348.53,-1229.21 1345.47,-1227.46 1342.59,-1225.68 1339.9,-1223.87 1337.42,-1222.05 1335.15,-1220.2 1333.1,-1218.34 1331.26,-1216.47 1329.66,-1214.59 1328.28,-1212.7 1327.14,-1210.8 1326.23,-1208.9 1325.57,-1207 1325.15,-1205.09 1324.97,-1203.19 1325.04,-1201.29 1325.35,-1199.39 1325.91,-1197.49 1326.71,-1195.6 1327.75,-1193.72 1329.02,-1191.84 1330.53,-1189.97 1332.27,-1188.12 1334.24,-1186.28 1336.43,-1184.46 1338.83,-1182.65 1341.44,-1180.87 1344.25,-1179.11 1347.25,-1177.38 1350.44,-1175.68 1353.8,-1174.02 1357.33,-1172.4 1361.02,-1170.83 1364.86,-1169.31 1368.83,-1167.85 1372.93,-1166.44 1377.14,-1165.11 1381.45,-1163.85 1385.86,-1162.67 1390.34,-1161.58 1394.89,-1160.58 1399.5,-1159.68 1404.14,-1158.89 1408.81,-1158.2 1413.5,-1157.63 1418.19,-1157.19 1422.87,-1156.87 1427.53,-1156.69 1432.14,-1156.64 1436.71,-1156.73 1441.22,-1156.97 1445.65,-1157.35 1449.99,-1157.88 1454.24,-1158.56 1458.37,-1159.4 1462.39,-1160.38 1466.27,-1161.52 1470,-1162.81 1473.58,-1164.24 1477,-1165.82 1480.24,-1167.53 1483.3,-1169.38 1486.17,-1171.37 1488.85,-1173.47 1491.31,-1175.69 1493.57,-1178.02 1495.6,-1180.45 1497.41,-1182.97 1499,-1185.58 1500.34,-1188.25 1501.46,-1190.99 1502.33,-1193.78 1502.96,-1196.6 1503.35,-1199.46 1503.49,-1202.33 1503.39,-1205.2 1503.04,-1208.06"/>
<text text-anchor="middle" x="1414.22" y="-1199.2" font-family="sans-serif" font-size="16.00">Minoristas</text>
</g>
<!-- Minoristas&#45;&gt;Marketplace -->
<g id="edge14" class="edge">
<title>Minoristas&#45;&gt;Marketplace</title>
<path fill="none" stroke="black" stroke-width="2" d="M1414.33,-1157.23C1414.49,-1146.67 1414.76,-1135.46 1415.22,-1125.05 1415.57,-1117.15 1416.1,-1108.72 1416.68,-1100.63"/>
<text text-anchor="middle" x="1471.22" y="-1128.45" font-family="sans-serif" font-size="12.00">Customer/Supplier</text>
<polygon fill="white" stroke="transparent" points="1409.68,-1091.63 1409.68,-1108.63 1423.68,-1108.63 1423.68,-1091.63 1409.68,-1091.63"/>
<text text-anchor="start" x="1411.68" y="-1097.03" font-family="sans-serif" font-size="12.00">D</text>
<polygon fill="white" stroke="transparent" points="1407.33,-1148.23 1407.33,-1165.23 1421.33,-1165.23 1421.33,-1148.23 1407.33,-1148.23"/>
<text text-anchor="start" x="1409.33" y="-1153.63" font-family="sans-serif" font-size="12.00">U</text>
</g>
<!-- ServicioAlCliente -->
<g id="node15" class="node">
<title>ServicioAlCliente</title>
<polygon fill="none" stroke="black" stroke-width="2" points="1800.09,-1039.43 1803.79,-1042 1807.15,-1044.6 1810.15,-1047.23 1812.78,-1049.88 1815.02,-1052.53 1816.87,-1055.17 1818.32,-1057.8 1819.35,-1060.41 1819.97,-1062.98 1820.16,-1065.51 1819.92,-1067.99 1819.26,-1070.41 1818.17,-1072.77 1816.66,-1075.05 1814.72,-1077.25 1812.37,-1079.37 1809.62,-1081.4 1806.47,-1083.34 1802.93,-1085.17 1799.01,-1086.91 1794.74,-1088.54 1790.13,-1090.07 1785.19,-1091.49 1779.94,-1092.8 1774.4,-1093.99 1768.59,-1095.08 1762.54,-1096.06 1756.26,-1096.93 1749.79,-1097.7 1743.13,-1098.35 1736.33,-1098.9 1729.4,-1099.35 1722.36,-1099.7 1715.24,-1099.95 1708.07,-1100.1 1700.88,-1100.16 1693.67,-1100.12 1686.49,-1100 1679.35,-1099.79 1672.27,-1099.49 1665.28,-1099.11 1658.39,-1098.65 1651.64,-1098.11 1645.03,-1097.5 1638.58,-1096.81 1632.32,-1096.04 1626.25,-1095.21 1620.4,-1094.3 1614.78,-1093.33 1609.39,-1092.28 1604.25,-1091.17 1599.37,-1089.99 1594.76,-1088.74 1590.43,-1087.42 1586.38,-1086.05 1582.62,-1084.6 1579.15,-1083.1 1575.98,-1081.53 1573.11,-1079.89 1570.54,-1078.2 1568.27,-1076.45 1566.31,-1074.63 1564.64,-1072.76 1563.28,-1070.84 1562.22,-1068.86 1561.46,-1066.84 1561,-1064.76 1560.82,-1062.65 1560.94,-1060.49 1561.35,-1058.3 1562.03,-1056.08 1563,-1053.83 1564.24,-1051.56 1565.76,-1049.28 1567.54,-1046.99 1569.58,-1044.7 1571.88,-1042.41 1574.44,-1040.14 1577.25,-1037.88 1580.3,-1035.66 1583.59,-1033.47 1587.12,-1031.32 1590.88,-1029.23 1594.86,-1027.2 1599.06,-1025.24 1603.47,-1023.36 1608.09,-1021.57 1612.91,-1019.87 1617.92,-1018.27 1623.12,-1016.79 1628.49,-1015.42 1634.03,-1014.18 1639.73,-1013.07 1645.58,-1012.11 1651.56,-1011.28 1657.67,-1010.6 1663.9,-1010.08 1670.22,-1009.72 1676.63,-1009.51 1683.11,-1009.47 1689.65,-1009.59 1696.23,-1009.88 1702.84,-1010.33 1709.44,-1010.94 1716.04,-1011.72 1722.61,-1012.66 1729.13,-1013.75 1735.58,-1015 1741.93,-1016.39 1748.18,-1017.92 1754.3,-1019.59 1760.27,-1021.39 1766.06,-1023.32 1771.66,-1025.35 1777.05,-1027.49 1782.21,-1029.72 1787.11,-1032.05 1791.73,-1034.44 1796.07,-1036.91 1800.09,-1039.43"/>
<text text-anchor="middle" x="1684.22" y="-1054.39" font-family="sans-serif" font-size="16.00">ServicioAlCliente</text>
</g>
<!-- ServicioDeBodegasDeTerceros -->
<g id="node16" class="node">
<title>ServicioDeBodegasDeTerceros</title>
<polygon fill="none" stroke="black" stroke-width="2" points="84.59,-736.26 94.32,-734.3 104.37,-732.44 114.7,-730.7 125.27,-729.06 136.04,-727.56 146.97,-726.18 158.02,-724.94 169.16,-723.84 180.34,-722.89 191.54,-722.09 202.7,-721.44 213.81,-720.95 224.82,-720.61 235.7,-720.44 246.43,-720.43 256.97,-720.58 267.31,-720.88 277.41,-721.35 287.25,-721.97 296.81,-722.74 306.08,-723.65 315.03,-724.72 323.66,-725.92 331.94,-727.25 339.86,-728.71 347.43,-730.28 354.61,-731.98 361.42,-733.77 367.84,-735.66 373.86,-737.64 379.49,-739.71 384.72,-741.84 389.55,-744.04 393.97,-746.29 397.98,-748.58 401.59,-750.92 404.79,-753.28 407.58,-755.66 409.97,-758.06 411.94,-760.46 413.51,-762.85 414.67,-765.23 415.41,-767.6 415.75,-769.94 415.67,-772.24 415.19,-774.51 414.28,-776.74 412.97,-778.91 411.23,-781.04 409.08,-783.1 406.51,-785.11 403.51,-787.05 400.1,-788.92 396.26,-790.72 392,-792.44 387.31,-794.09 382.21,-795.66 376.68,-797.16 370.74,-798.57 364.38,-799.91 357.62,-801.16 350.45,-802.33 342.89,-803.42 334.95,-804.43 326.63,-805.35 317.95,-806.19 308.92,-806.95 299.57,-807.63 289.9,-808.22 279.94,-808.73 269.71,-809.15 259.24,-809.49 248.54,-809.75 237.66,-809.92 226.61,-810.01 215.44,-810.01 204.17,-809.93 192.84,-809.76 181.48,-809.5 170.13,-809.15 158.84,-808.72 147.63,-808.19 136.56,-807.58 125.65,-806.87 114.95,-806.07 104.51,-805.18 94.36,-804.19 84.54,-803.12 75.09,-801.95 66.05,-800.68 57.46,-799.33 49.35,-797.88 41.75,-796.34 34.71,-794.72 28.24,-793 22.38,-791.2 17.15,-789.32 12.58,-787.37 8.68,-785.33 5.47,-783.23 2.97,-781.06 1.18,-778.82 0.11,-776.53 -0.22,-774.2 0.17,-771.81 1.29,-769.39 3.13,-766.95 5.68,-764.48 8.93,-761.99 12.86,-759.5 17.46,-757.02 22.71,-754.54 28.58,-752.09 35.04,-749.66 42.07,-747.28 49.63,-744.94 57.7,-742.66 66.24,-740.45 75.22,-738.31 84.59,-736.26"/>
<text text-anchor="middle" x="222.22" y="-764.82" font-family="sans-serif" font-size="16.00">ServicioDeBodegasDeTerceros</text>
</g>
<!-- ServicioDeBodegasDeTerceros&#45;&gt;ServicioDeAlmacenamientoConTerceros -->
<g id="edge15" class="edge">
<title>ServicioDeBodegasDeTerceros&#45;&gt;ServicioDeAlmacenamientoConTerceros</title>
<path fill="none" stroke="black" stroke-width="2" d="M358.14,-732.83C437.87,-712.41 538.7,-686.6 620.55,-665.65"/>
<text text-anchor="middle" x="604.72" y="-692.21" font-family="sans-serif" font-size="12.00"> &#160;&#160;&#160;&#160;&#160;&#160;&#160;&#160;&#160;&#160;&#160;&#160;&#160;&#160;&#160;&#160;&#160;&#160;&#160;&#160;&#160;&#160;&#160;&#160;&#160;&#160;&#160;&#160;&#160;&#160;&#160;&#160;&#160;&#160;&#160;&#160;&#160;&#160;&#160;</text>
<polygon fill="white" stroke="transparent" points="597.55,-655.65 597.55,-674.65 613.55,-674.65 613.55,-655.65 597.55,-655.65"/>
<polyline fill="none" stroke="black" points="613.55,-655.65 613.55,-674.65 "/>
<text text-anchor="start" x="600.55" y="-662.05" font-family="sans-serif" font-size="12.00">D</text>
<polygon fill="white" stroke="transparent" points="613.55,-655.65 613.55,-674.65 643.55,-674.65 643.55,-655.65 613.55,-655.65"/>
<polygon fill="none" stroke="black" points="613.55,-655.65 613.55,-674.65 643.55,-674.65 643.55,-655.65 613.55,-655.65"/>
<text text-anchor="start" x="616.55" y="-662.05" font-family="sans-serif" font-size="12.00">ACL</text>
<polygon fill="white" stroke="transparent" points="351.14,-723.83 351.14,-740.83 365.14,-740.83 365.14,-723.83 351.14,-723.83"/>
<text text-anchor="start" x="353.14" y="-729.23" font-family="sans-serif" font-size="12.00">U</text>
</g>
<!-- ServicioDeCentrosDeDistribucionDeTerceros -->
<g id="node17" class="node">
<title>ServicioDeCentrosDeDistribucionDeTerceros</title>
<polygon fill="none" stroke="black" stroke-width="2" points="539.27,-794.01 528.39,-791.7 518.21,-789.33 508.77,-786.91 500.13,-784.46 492.31,-781.98 485.35,-779.48 479.28,-776.98 474.13,-774.47 469.92,-771.97 466.68,-769.48 464.42,-767.02 463.15,-764.6 462.87,-762.21 463.6,-759.87 465.32,-757.58 468.04,-755.35 471.74,-753.19 476.4,-751.09 482.01,-749.07 488.55,-747.12 495.97,-745.26 504.26,-743.48 513.38,-741.79 523.28,-740.19 533.94,-738.67 545.29,-737.26 557.3,-735.93 569.92,-734.7 583.09,-733.56 596.76,-732.52 610.89,-731.57 625.4,-730.72 640.25,-729.96 655.38,-729.29 670.73,-728.71 686.26,-728.23 701.89,-727.84 717.59,-727.53 733.29,-727.32 748.95,-727.19 764.51,-727.15 779.93,-727.19 795.17,-727.32 810.17,-727.53 824.89,-727.83 839.31,-728.21 853.38,-728.68 867.07,-729.22 880.34,-729.85 893.18,-730.56 905.55,-731.35 917.43,-732.23 928.81,-733.19 939.66,-734.22 949.97,-735.34 959.73,-736.54 968.92,-737.82 977.55,-739.18 985.59,-740.62 993.04,-742.14 999.91,-743.74 1006.19,-745.41 1011.88,-747.15 1016.97,-748.97 1021.48,-750.85 1025.39,-752.81 1028.72,-754.82 1031.45,-756.9 1033.61,-759.03 1035.18,-761.22 1036.18,-763.45 1036.6,-765.72 1036.44,-768.03 1035.71,-770.37 1034.42,-772.74 1032.55,-775.12 1030.12,-777.51 1027.13,-779.91 1023.57,-782.3 1019.45,-784.67 1014.76,-787.03 1009.52,-789.35 1003.72,-791.64 997.37,-793.88 990.46,-796.06 983.01,-798.18 975.01,-800.22 966.47,-802.18 957.4,-804.05 947.81,-805.83 937.7,-807.49 927.09,-809.04 915.98,-810.48 904.41,-811.78 892.37,-812.95 879.89,-813.98 867,-814.86 853.72,-815.6 840.06,-816.18 826.07,-816.61 811.78,-816.88 797.21,-816.99 782.41,-816.93 767.41,-816.72 752.25,-816.34 736.98,-815.81 721.65,-815.12 706.29,-814.27 690.96,-813.28 675.72,-812.14 660.6,-810.85 645.67,-809.43 630.98,-807.88 616.57,-806.21 602.51,-804.42 588.86,-802.52 575.65,-800.52 562.95,-798.43 550.8,-796.26 539.27,-794.01"/>
<text text-anchor="middle" x="769.22" y="-764.82" font-family="sans-serif" font-size="16.00">ServicioDeCentrosDeDistribucionDeTerceros</text>
</g>
<!-- ServicioDeCentrosDeDistribucionDeTerceros&#45;&gt;ServicioDeAlmacenamientoConTerceros -->
<g id="edge16" class="edge">
<title>ServicioDeCentrosDeDistribucionDeTerceros&#45;&gt;ServicioDeAlmacenamientoConTerceros</title>
<path fill="none" stroke="black" stroke-width="2" d="M769.22,-727.12C769.22,-709.35 769.22,-688.47 769.22,-670.44"/>
<text text-anchor="middle" x="844.72" y="-692.21" font-family="sans-serif" font-size="12.00"> &#160;&#160;&#160;&#160;&#160;&#160;&#160;&#160;&#160;&#160;&#160;&#160;&#160;&#160;&#160;&#160;&#160;&#160;&#160;&#160;&#160;&#160;&#160;&#160;&#160;&#160;&#160;&#160;&#160;&#160;&#160;&#160;&#160;&#160;&#160;&#160;&#160;&#160;&#160;</text>
<polygon fill="white" stroke="transparent" points="746.22,-660.44 746.22,-679.44 762.22,-679.44 762.22,-660.44 746.22,-660.44"/>
<polyline fill="none" stroke="black" points="762.22,-660.44 762.22,-679.44 "/>
<text text-anchor="start" x="749.22" y="-666.84" font-family="sans-serif" font-size="12.00">D</text>
<polygon fill="white" stroke="transparent" points="762.22,-660.44 762.22,-679.44 792.22,-679.44 792.22,-660.44 762.22,-660.44"/>
<polygon fill="none" stroke="black" points="762.22,-660.44 762.22,-679.44 792.22,-679.44 792.22,-660.44 762.22,-660.44"/>
<text text-anchor="start" x="765.22" y="-666.84" font-family="sans-serif" font-size="12.00">ACL</text>
<polygon fill="white" stroke="transparent" points="762.22,-718.12 762.22,-735.12 776.22,-735.12 776.22,-718.12 762.22,-718.12"/>
<text text-anchor="start" x="764.22" y="-723.52" font-family="sans-serif" font-size="12.00">U</text>
</g>
<!-- Storefront -->
<g id="node18" class="node">
<title>Storefront</title>
<polygon fill="none" stroke="black" stroke-width="2" points="1609.22,-1164.38 1614.27,-1162.98 1619.39,-1161.7 1624.59,-1160.54 1629.82,-1159.5 1635.08,-1158.59 1640.35,-1157.82 1645.6,-1157.19 1650.81,-1156.7 1655.97,-1156.36 1661.07,-1156.16 1666.07,-1156.11 1670.98,-1156.21 1675.76,-1156.46 1680.42,-1156.86 1684.93,-1157.4 1689.29,-1158.09 1693.48,-1158.93 1697.49,-1159.9 1701.32,-1161.02 1704.97,-1162.26 1708.41,-1163.64 1711.65,-1165.13 1714.69,-1166.75 1717.52,-1168.47 1720.13,-1170.3 1722.54,-1172.23 1724.73,-1174.25 1726.71,-1176.35 1728.48,-1178.52 1730.05,-1180.76 1731.4,-1183.06 1732.56,-1185.4 1733.51,-1187.79 1734.27,-1190.21 1734.83,-1192.65 1735.21,-1195.11 1735.4,-1197.57 1735.41,-1200.03 1735.24,-1202.48 1734.9,-1204.92 1734.38,-1207.33 1733.71,-1209.7 1732.87,-1212.04 1731.86,-1214.33 1730.71,-1216.57 1729.39,-1218.75 1727.93,-1220.87 1726.31,-1222.92 1724.54,-1224.89 1722.63,-1226.79 1720.57,-1228.6 1718.37,-1230.33 1716.02,-1231.97 1713.53,-1233.52 1710.9,-1234.98 1708.12,-1236.34 1705.21,-1237.6 1702.16,-1238.77 1698.97,-1239.84 1695.65,-1240.8 1692.2,-1241.67 1688.62,-1242.44 1684.91,-1243.1 1681.08,-1243.67 1677.13,-1244.13 1673.08,-1244.5 1668.92,-1244.77 1664.66,-1244.94 1660.31,-1245.01 1655.88,-1244.99 1651.37,-1244.87 1646.81,-1244.65 1642.19,-1244.35 1637.53,-1243.95 1632.85,-1243.46 1628.16,-1242.88 1623.46,-1242.22 1618.79,-1241.46 1614.14,-1240.62 1609.55,-1239.7 1605.01,-1238.69 1600.56,-1237.59 1596.21,-1236.42 1591.98,-1235.16 1587.88,-1233.83 1583.93,-1232.42 1580.14,-1230.94 1576.54,-1229.38 1573.15,-1227.75 1569.97,-1226.05 1567.02,-1224.29 1564.32,-1222.46 1561.88,-1220.57 1559.72,-1218.62 1557.84,-1216.62 1556.25,-1214.57 1554.98,-1212.47 1554.01,-1210.33 1553.37,-1208.15 1553.05,-1205.93 1553.06,-1203.69 1553.4,-1201.43 1554.07,-1199.15 1555.07,-1196.86 1556.4,-1194.56 1558.05,-1192.27 1560.02,-1189.98 1562.3,-1187.71 1564.87,-1185.47 1567.74,-1183.25 1570.89,-1181.07 1574.3,-1178.94 1577.96,-1176.86 1581.86,-1174.84 1585.98,-1172.88 1590.3,-1171.01 1594.8,-1169.21 1599.47,-1167.5 1604.28,-1165.89 1609.22,-1164.38"/>
<text text-anchor="middle" x="1651.22" y="-1199.2" font-family="sans-serif" font-size="16.00">Storefront</text>
</g>
<!-- Storefront&#45;&gt;Marketplace -->
<g id="edge17" class="edge">
<title>Storefront&#45;&gt;Marketplace</title>
<path fill="none" stroke="black" stroke-width="2" d="M1596.92,-1168.25C1575.25,-1154.79 1550.07,-1139.17 1527.22,-1125.05 1512.75,-1116.11 1497.16,-1106.5 1482.48,-1097.46"/>
<text text-anchor="middle" x="1604.22" y="-1128.45" font-family="sans-serif" font-size="12.00">Customer/Supplier</text>
<polygon fill="white" stroke="transparent" points="1475.48,-1088.46 1475.48,-1105.46 1489.48,-1105.46 1489.48,-1088.46 1475.48,-1088.46"/>
<text text-anchor="start" x="1477.48" y="-1093.86" font-family="sans-serif" font-size="12.00">D</text>
<polygon fill="white" stroke="transparent" points="1589.92,-1159.25 1589.92,-1176.25 1603.92,-1176.25 1603.92,-1159.25 1589.92,-1159.25"/>
<text text-anchor="start" x="1591.92" y="-1164.65" font-family="sans-serif" font-size="12.00">U</text>
</g>
<!-- Storefront&#45;&gt;ServicioAlCliente -->
<g id="edge18" class="edge">
<title>Storefront&#45;&gt;ServicioAlCliente</title>
<path fill="none" stroke="black" stroke-width="2" d="M1661.84,-1156.03C1666.03,-1137.93 1670.79,-1117.32 1674.84,-1099.78"/>
<text text-anchor="middle" x="1743.72" y="-1128.45" font-family="sans-serif" font-size="12.00"> &#160;&#160;&#160;&#160;&#160;&#160;&#160;&#160;&#160;&#160;&#160;&#160;&#160;&#160;&#160;&#160;&#160;&#160;&#160;&#160;&#160;&#160;&#160;&#160;&#160;&#160;&#160;&#160;&#160;&#160;&#160;&#160;&#160;&#160;&#160;&#160;&#160;&#160;&#160;</text>
<polygon fill="white" stroke="transparent" points="1651.84,-1089.78 1651.84,-1108.78 1667.84,-1108.78 1667.84,-1089.78 1651.84,-1089.78"/>
<polyline fill="none" stroke="black" points="1667.84,-1089.78 1667.84,-1108.78 "/>
<text text-anchor="start" x="1654.84" y="-1096.18" font-family="sans-serif" font-size="12.00">D</text>
<polygon fill="white" stroke="transparent" points="1667.84,-1089.78 1667.84,-1108.78 1697.84,-1108.78 1697.84,-1089.78 1667.84,-1089.78"/>
<polygon fill="none" stroke="black" points="1667.84,-1089.78 1667.84,-1108.78 1697.84,-1108.78 1697.84,-1089.78 1667.84,-1089.78"/>
<text text-anchor="start" x="1670.84" y="-1096.18" font-family="sans-serif" font-size="12.00">ACL</text>
<polygon fill="white" stroke="transparent" points="1654.84,-1147.03 1654.84,-1164.03 1668.84,-1164.03 1668.84,-1147.03 1654.84,-1147.03"/>
<text text-anchor="start" x="1656.84" y="-1152.43" font-family="sans-serif" font-size="12.00">U</text>
</g>
</g>
</svg>
