<svg width="2000px" height="1198px"
 viewBox="0.00 0.00 1145.14 686.44" xmlns="http://www.w3.org/2000/svg" xmlns:xlink="http://www.w3.org/1999/xlink">
<g id="graph0" class="graph" transform="scale(1.0 1.0) rotate(0) translate(4 682.44)">
<title>ContextMapGraph</title>
<polygon fill="white" stroke="transparent" points="-4,4 -4,-682.44 1141.14,-682.44 1141.14,4 -4,4"/>
<!-- BancoLosAlpes -->
<g id="node1" class="node">
<title>BancoLosAlpes</title>
<polygon fill="none" stroke="black" stroke-width="2" points="73.61,-362.03 69.74,-359.57 66.18,-357.05 62.94,-354.51 60.04,-351.94 57.49,-349.35 55.3,-346.77 53.49,-344.18 52.05,-341.61 51.01,-339.07 50.36,-336.56 50.11,-334.08 50.26,-331.66 50.82,-329.29 51.78,-326.98 53.14,-324.74 54.89,-322.57 57.03,-320.49 59.55,-318.49 62.45,-316.57 65.7,-314.75 69.31,-313.03 73.24,-311.4 77.5,-309.87 82.06,-308.44 86.91,-307.12 92.02,-305.9 97.37,-304.78 102.95,-303.76 108.74,-302.85 114.7,-302.04 120.83,-301.32 127.09,-300.71 133.46,-300.2 139.93,-299.79 146.46,-299.46 153.04,-299.24 159.64,-299.1 166.24,-299.05 172.81,-299.09 179.35,-299.22 185.82,-299.43 192.2,-299.72 198.49,-300.1 204.65,-300.55 210.68,-301.09 216.55,-301.7 222.26,-302.39 227.79,-303.15 233.12,-303.99 238.25,-304.9 243.16,-305.89 247.85,-306.95 252.3,-308.08 256.51,-309.28 260.48,-310.56 264.19,-311.9 267.64,-313.32 270.84,-314.81 273.77,-316.37 276.44,-317.99 278.85,-319.68 280.98,-321.44 282.85,-323.26 284.46,-325.14 285.8,-327.08 286.88,-329.08 287.69,-331.14 288.24,-333.24 288.54,-335.39 288.58,-337.58 288.37,-339.8 287.9,-342.06 287.19,-344.35 286.24,-346.66 285.03,-348.98 283.59,-351.31 281.91,-353.64 280,-355.97 277.85,-358.28 275.48,-360.57 272.87,-362.82 270.05,-365.04 267,-367.21 263.74,-369.33 260.26,-371.38 256.57,-373.35 252.68,-375.25 248.59,-377.06 244.3,-378.76 239.82,-380.36 235.16,-381.85 230.32,-383.22 225.31,-384.45 220.14,-385.56 214.82,-386.52 209.35,-387.34 203.76,-388.01 198.04,-388.52 192.21,-388.88 186.28,-389.07 180.28,-389.11 174.2,-388.98 168.07,-388.69 161.91,-388.23 155.73,-387.62 149.54,-386.84 143.37,-385.91 137.23,-384.82 131.15,-383.59 125.15,-382.21 119.23,-380.69 113.44,-379.04 107.77,-377.27 102.27,-375.37 96.93,-373.37 91.8,-371.27 86.88,-369.08 82.19,-366.8 77.76,-364.45 73.61,-362.03"/>
<text text-anchor="middle" x="176.14" y="-336.81" font-family="sans-serif" font-size="16.00">BancoLosAlpes</text>
</g>
<!-- Logistica -->
<g id="node2" class="node">
<title>Logistica</title>
<polygon fill="none" stroke="black" stroke-width="2" points="496.2,-182.44 497.7,-185.21 498.97,-188 500,-190.79 500.79,-193.57 501.35,-196.33 501.65,-199.06 501.71,-201.76 501.51,-204.41 501.06,-207 500.36,-209.52 499.41,-211.96 498.2,-214.33 496.75,-216.6 495.06,-218.77 493.12,-220.84 490.96,-222.8 488.56,-224.65 485.95,-226.39 483.12,-228 480.09,-229.49 476.87,-230.85 473.47,-232.09 469.9,-233.2 466.17,-234.18 462.29,-235.04 458.28,-235.78 454.15,-236.39 449.92,-236.87 445.59,-237.24 441.19,-237.5 436.72,-237.64 432.21,-237.67 427.67,-237.59 423.11,-237.41 418.54,-237.14 413.99,-236.76 409.47,-236.3 404.99,-235.74 400.56,-235.11 396.2,-234.39 391.92,-233.6 387.73,-232.73 383.65,-231.79 379.69,-230.79 375.86,-229.72 372.16,-228.58 368.61,-227.39 365.22,-226.14 362,-224.84 358.94,-223.48 356.07,-222.07 353.38,-220.6 350.89,-219.09 348.58,-217.53 346.48,-215.92 344.58,-214.26 342.89,-212.56 341.4,-210.81 340.13,-209.02 339.06,-207.19 338.2,-205.31 337.55,-203.39 337.11,-201.44 336.88,-199.45 336.86,-197.43 337.04,-195.37 337.42,-193.29 338,-191.18 338.77,-189.05 339.74,-186.9 340.89,-184.73 342.23,-182.56 343.75,-180.38 345.45,-178.21 347.31,-176.04 349.34,-173.89 351.54,-171.76 353.89,-169.66 356.39,-167.59 359.03,-165.56 361.81,-163.59 364.73,-161.67 367.78,-159.82 370.94,-158.04 374.23,-156.35 377.62,-154.75 381.11,-153.24 384.7,-151.85 388.37,-150.56 392.13,-149.4 395.95,-148.37 399.84,-147.47 403.79,-146.71 407.79,-146.1 411.83,-145.64 415.89,-145.33 419.98,-145.18 424.08,-145.2 428.18,-145.38 432.28,-145.72 436.36,-146.24 440.41,-146.91 444.42,-147.76 448.38,-148.76 452.28,-149.93 456.11,-151.25 459.86,-152.72 463.52,-154.34 467.07,-156.11 470.51,-158 473.81,-160.03 476.99,-162.17 480.01,-164.42 482.88,-166.77 485.57,-169.22 488.09,-171.74 490.42,-174.34 492.56,-177 494.49,-179.7 496.2,-182.44"/>
<text text-anchor="middle" x="417.14" y="-190.33" font-family="sans-serif" font-size="16.00">Logistica</text>
</g>
<!-- BancoLosAlpes&#45;&gt;Logistica -->
<g id="edge1" class="edge">
<title>BancoLosAlpes&#45;&gt;Logistica</title>
<path fill="none" stroke="black" stroke-width="2" d="M212.78,-300.92C227.25,-287.08 244.6,-272.13 262.14,-260.86 288.94,-243.63 321.02,-229.16 349.03,-218.22"/>
<text text-anchor="middle" x="337.64" y="-264.26" font-family="sans-serif" font-size="12.00"> &#160;&#160;&#160;&#160;&#160;&#160;&#160;&#160;&#160;&#160;&#160;&#160;&#160;&#160;&#160;&#160;&#160;&#160;&#160;&#160;&#160;&#160;&#160;&#160;&#160;&#160;&#160;&#160;&#160;&#160;&#160;&#160;&#160;&#160;&#160;&#160;&#160;&#160;&#160;</text>
<polygon fill="white" stroke="transparent" points="330.03,-208.22 330.03,-227.22 346.03,-227.22 346.03,-208.22 330.03,-208.22"/>
<polyline fill="none" stroke="black" points="346.03,-208.22 346.03,-227.22 "/>
<text text-anchor="start" x="333.03" y="-214.62" font-family="sans-serif" font-size="12.00">D</text>
<polygon fill="white" stroke="transparent" points="346.03,-208.22 346.03,-227.22 368.03,-227.22 368.03,-208.22 346.03,-208.22"/>
<polygon fill="none" stroke="black" points="346.03,-208.22 346.03,-227.22 368.03,-227.22 368.03,-208.22 346.03,-208.22"/>
<text text-anchor="start" x="349.03" y="-214.62" font-family="sans-serif" font-size="12.00">CF</text>
<polygon fill="white" stroke="transparent" points="205.78,-291.92 205.78,-308.92 219.78,-308.92 219.78,-291.92 205.78,-291.92"/>
<text text-anchor="start" x="207.78" y="-297.32" font-family="sans-serif" font-size="12.00">U</text>
</g>
<!-- SistemaDeTrackingYMonitoreo -->
<g id="node3" class="node">
<title>SistemaDeTrackingYMonitoreo</title>
<polygon fill="none" stroke="black" stroke-width="2" points="225.98,-92.16 212.65,-92.27 199.38,-92.26 186.24,-92.12 173.28,-91.87 160.54,-91.49 148.08,-90.99 135.94,-90.37 124.18,-89.63 112.83,-88.77 101.93,-87.8 91.52,-86.71 81.64,-85.51 72.32,-84.21 63.58,-82.81 55.45,-81.3 47.94,-79.7 41.09,-78.01 34.89,-76.23 29.35,-74.37 24.49,-72.44 20.31,-70.43 16.8,-68.37 13.97,-66.24 11.8,-64.06 10.28,-61.84 9.4,-59.57 9.15,-57.28 9.5,-54.96 10.45,-52.62 11.97,-50.26 14.03,-47.91 16.61,-45.55 19.69,-43.21 23.24,-40.88 27.24,-38.57 31.66,-36.29 36.47,-34.05 41.65,-31.85 47.18,-29.7 53.03,-27.6 59.17,-25.57 65.59,-23.6 72.25,-21.7 79.15,-19.88 86.27,-18.15 93.58,-16.5 101.06,-14.94 108.72,-13.48 116.52,-12.11 124.46,-10.85 132.53,-9.7 140.72,-8.65 149.02,-7.71 157.42,-6.89 165.91,-6.19 174.5,-5.6 183.16,-5.13 191.9,-4.78 200.72,-4.54 209.59,-4.43 218.53,-4.43 227.52,-4.56 236.55,-4.8 245.63,-5.16 254.73,-5.64 263.85,-6.22 272.98,-6.92 282.1,-7.73 291.21,-8.65 300.27,-9.67 309.29,-10.79 318.24,-12.01 327.09,-13.33 335.83,-14.74 344.43,-16.23 352.87,-17.8 361.12,-19.46 369.15,-21.19 376.92,-22.99 384.43,-24.85 391.62,-26.78 398.46,-28.76 404.93,-30.79 411,-32.86 416.62,-34.98 421.78,-37.13 426.42,-39.31 430.54,-41.51 434.08,-43.73 437.04,-45.97 439.37,-48.21 441.06,-50.45 442.09,-52.69 442.43,-54.91 442.07,-57.12 440.99,-59.31 439.18,-61.48 436.64,-63.61 433.36,-65.7 429.34,-67.75 424.59,-69.74 419.11,-71.69 412.91,-73.57 406.01,-75.39 398.43,-77.14 390.18,-78.82 381.31,-80.41 371.82,-81.92 361.77,-83.34 351.19,-84.68 340.11,-85.91 328.58,-87.04 316.65,-88.08 304.36,-89 291.76,-89.81 278.9,-90.52 265.84,-91.1 252.63,-91.57 239.32,-91.93 225.98,-92.16"/>
<text text-anchor="middle" x="221.14" y="-44.4" font-family="sans-serif" font-size="16.00">SistemaDeTrackingYMonitoreo</text>
</g>
<!-- Logistica&#45;&gt;SistemaDeTrackingYMonitoreo -->
<g id="edge2" class="edge">
<title>Logistica&#45;&gt;SistemaDeTrackingYMonitoreo</title>
<path fill="none" stroke="black" stroke-width="2" d="M369.7,-158.29C341.94,-137.91 306.73,-112.05 277.56,-90.63"/>
<text text-anchor="middle" x="400.64" y="-117.81" font-family="sans-serif" font-size="12.00"> &#160;&#160;&#160;&#160;&#160;&#160;&#160;&#160;&#160;&#160;&#160;&#160;&#160;&#160;&#160;&#160;&#160;&#160;&#160;&#160;&#160;&#160;&#160;&#160;&#160;&#160;&#160;&#160;&#160;&#160;&#160;&#160;&#160;&#160;&#160;&#160;&#160;&#160;&#160;</text>
<polygon fill="white" stroke="transparent" points="270.56,-81.63 270.56,-98.63 284.56,-98.63 284.56,-81.63 270.56,-81.63"/>
<text text-anchor="start" x="272.56" y="-87.03" font-family="sans-serif" font-size="12.00">D</text>
<polygon fill="white" stroke="transparent" points="334.7,-148.29 334.7,-167.29 350.7,-167.29 350.7,-148.29 334.7,-148.29"/>
<polyline fill="none" stroke="black" points="350.7,-148.29 350.7,-167.29 "/>
<text text-anchor="start" x="337.7" y="-154.69" font-family="sans-serif" font-size="12.00">U</text>
<polygon fill="white" stroke="transparent" points="350.7,-148.29 350.7,-167.29 405.7,-167.29 405.7,-148.29 350.7,-148.29"/>
<polygon fill="none" stroke="black" points="350.7,-148.29 350.7,-167.29 405.7,-167.29 405.7,-148.29 350.7,-148.29"/>
<text text-anchor="start" x="353.7" y="-154.69" font-family="sans-serif" font-size="12.00">OHS, PL</text>
</g>
<!-- PlaneacionDeRutas -->
<g id="node4" class="node">
<title>PlaneacionDeRutas</title>
<polygon fill="none" stroke="black" stroke-width="2" points="724.8,-20.83 730.63,-23.06 736.11,-25.35 741.24,-27.7 745.97,-30.09 750.3,-32.52 754.2,-34.97 757.65,-37.44 760.65,-39.92 763.17,-42.4 765.21,-44.86 766.75,-47.31 767.8,-49.74 768.34,-52.14 768.37,-54.49 767.89,-56.81 766.91,-59.07 765.42,-61.27 763.45,-63.42 760.98,-65.49 758.05,-67.5 754.65,-69.43 750.8,-71.29 746.53,-73.06 741.85,-74.75 736.78,-76.36 731.34,-77.87 725.56,-79.3 719.47,-80.64 713.07,-81.89 706.42,-83.05 699.52,-84.12 692.41,-85.1 685.11,-85.98 677.66,-86.78 670.09,-87.48 662.41,-88.09 654.66,-88.62 646.87,-89.05 639.06,-89.4 631.25,-89.65 623.48,-89.82 615.76,-89.9 608.13,-89.9 600.6,-89.81 593.19,-89.63 585.92,-89.36 578.81,-89.01 571.87,-88.58 565.13,-88.05 558.6,-87.45 552.28,-86.75 546.19,-85.97 540.35,-85.1 534.75,-84.15 529.41,-83.11 524.33,-81.98 519.52,-80.77 514.98,-79.48 510.72,-78.1 506.73,-76.63 503.03,-75.09 499.61,-73.46 496.48,-71.76 493.63,-69.98 491.06,-68.12 488.77,-66.19 486.77,-64.19 485.05,-62.13 483.62,-60 482.46,-57.82 481.59,-55.59 481,-53.31 480.69,-50.99 480.66,-48.63 480.91,-46.24 481.44,-43.83 482.25,-41.41 483.34,-38.98 484.72,-36.55 486.38,-34.13 488.32,-31.73 490.55,-29.35 493.06,-27.01 495.86,-24.71 498.95,-22.46 502.32,-20.27 505.97,-18.16 509.91,-16.12 514.13,-14.16 518.62,-12.3 523.39,-10.55 528.44,-8.9 533.75,-7.37 539.31,-5.97 545.13,-4.7 551.19,-3.56 557.49,-2.57 564.01,-1.72 570.73,-1.02 577.65,-0.48 584.75,-0.09 592.01,0.14 599.42,0.21 606.95,0.11 614.59,-0.14 622.31,-0.55 630.09,-1.12 637.91,-1.84 645.74,-2.72 653.55,-3.74 661.32,-4.9 669.03,-6.21 676.63,-7.64 684.11,-9.21 691.44,-10.89 698.58,-12.68 705.52,-14.58 712.22,-16.58 718.66,-18.66 724.8,-20.83"/>
<text text-anchor="middle" x="614.14" y="-44.4" font-family="sans-serif" font-size="16.00">PlaneacionDeRutas</text>
</g>
<!-- Logistica&#45;&gt;PlaneacionDeRutas -->
<g id="edge3" class="edge">
<title>Logistica&#45;&gt;PlaneacionDeRutas</title>
<path fill="none" stroke="black" stroke-width="2" d="M467.62,-156.25C496.35,-135.27 532.29,-109 561.39,-87.75"/>
<text text-anchor="middle" x="597.64" y="-117.81" font-family="sans-serif" font-size="12.00"> &#160;&#160;&#160;&#160;&#160;&#160;&#160;&#160;&#160;&#160;&#160;&#160;&#160;&#160;&#160;&#160;&#160;&#160;&#160;&#160;&#160;&#160;&#160;&#160;&#160;&#160;&#160;&#160;&#160;&#160;&#160;&#160;&#160;&#160;&#160;&#160;&#160;&#160;&#160;</text>
<polygon fill="white" stroke="transparent" points="554.39,-78.75 554.39,-95.75 568.39,-95.75 568.39,-78.75 554.39,-78.75"/>
<text text-anchor="start" x="556.39" y="-84.15" font-family="sans-serif" font-size="12.00">D</text>
<polygon fill="white" stroke="transparent" points="432.62,-146.25 432.62,-165.25 448.62,-165.25 448.62,-146.25 432.62,-146.25"/>
<polyline fill="none" stroke="black" points="448.62,-146.25 448.62,-165.25 "/>
<text text-anchor="start" x="435.62" y="-152.65" font-family="sans-serif" font-size="12.00">U</text>
<polygon fill="white" stroke="transparent" points="448.62,-146.25 448.62,-165.25 503.62,-165.25 503.62,-146.25 448.62,-146.25"/>
<polygon fill="none" stroke="black" points="448.62,-146.25 448.62,-165.25 503.62,-165.25 503.62,-146.25 448.62,-146.25"/>
<text text-anchor="start" x="451.62" y="-152.65" font-family="sans-serif" font-size="12.00">OHS, PL</text>
</g>
<!-- Inbound -->
<g id="node5" class="node">
<title>Inbound</title>
<polygon fill="none" stroke="black" stroke-width="2" points="339.03,-635.19 338.38,-632.33 337.96,-629.48 337.76,-626.65 337.78,-623.84 338.03,-621.07 338.5,-618.35 339.2,-615.69 340.12,-613.09 341.27,-610.58 342.63,-608.15 344.22,-605.82 346.02,-603.6 348.02,-601.48 350.23,-599.48 352.64,-597.6 355.24,-595.85 358.02,-594.23 360.98,-592.74 364.11,-591.39 367.39,-590.17 370.82,-589.1 374.38,-588.17 378.07,-587.37 381.88,-586.71 385.79,-586.19 389.79,-585.81 393.87,-585.55 398.02,-585.43 402.22,-585.43 406.46,-585.55 410.72,-585.78 415,-586.13 419.28,-586.59 423.55,-587.15 427.8,-587.81 432,-588.56 436.16,-589.4 440.25,-590.32 444.26,-591.32 448.19,-592.39 452.02,-593.53 455.74,-594.74 459.35,-596.01 462.82,-597.33 466.15,-598.71 469.33,-600.13 472.36,-601.61 475.22,-603.12 477.91,-604.68 480.43,-606.28 482.75,-607.91 484.89,-609.58 486.83,-611.28 488.58,-613.01 490.12,-614.78 491.46,-616.57 492.59,-618.39 493.51,-620.24 494.22,-622.11 494.72,-624.01 495.01,-625.93 495.09,-627.87 494.96,-629.83 494.62,-631.82 494.08,-633.81 493.34,-635.82 492.4,-637.85 491.26,-639.88 489.94,-641.91 488.42,-643.95 486.73,-645.99 484.85,-648.02 482.81,-650.03 480.6,-652.03 478.23,-654.01 475.7,-655.96 473.03,-657.88 470.22,-659.76 467.28,-661.59 464.21,-663.36 461.02,-665.07 457.73,-666.72 454.33,-668.29 450.83,-669.77 447.25,-671.16 443.6,-672.46 439.87,-673.65 436.09,-674.72 432.25,-675.68 428.37,-676.51 424.46,-677.21 420.52,-677.77 416.57,-678.18 412.62,-678.45 408.67,-678.56 404.73,-678.52 400.82,-678.32 396.94,-677.96 393.11,-677.44 389.33,-676.76 385.61,-675.91 381.96,-674.9 378.4,-673.73 374.93,-672.41 371.56,-670.93 368.3,-669.31 365.16,-667.54 362.15,-665.64 359.28,-663.6 356.55,-661.44 353.98,-659.17 351.57,-656.79 349.34,-654.32 347.28,-651.76 345.41,-649.12 343.73,-646.42 342.24,-643.66 340.96,-640.87 339.89,-638.04 339.03,-635.19"/>
<text text-anchor="middle" x="417.14" y="-626.51" font-family="sans-serif" font-size="16.00">Inbound</text>
</g>
<!-- ManejoInventariosYBodegas -->
<g id="node6" class="node">
<title>ManejoInventariosYBodegas</title>
<polygon fill="none" stroke="black" stroke-width="2" points="227.94,-477.68 230.08,-474.86 232.73,-472.08 235.88,-469.36 239.52,-466.69 243.64,-464.1 248.22,-461.59 253.26,-459.17 258.74,-456.85 264.63,-454.65 270.94,-452.57 277.62,-450.61 284.68,-448.78 292.09,-447.1 299.82,-445.55 307.86,-444.16 316.19,-442.92 324.78,-441.83 333.61,-440.9 342.65,-440.12 351.89,-439.5 361.29,-439.04 370.84,-438.73 380.51,-438.58 390.26,-438.57 400.09,-438.72 409.95,-439 419.83,-439.42 429.71,-439.98 439.54,-440.66 449.32,-441.47 459.01,-442.39 468.59,-443.42 478.03,-444.55 487.31,-445.78 496.41,-447.09 505.3,-448.49 513.96,-449.97 522.37,-451.51 530.5,-453.11 538.33,-454.77 545.84,-456.48 553.02,-458.24 559.83,-460.03 566.27,-461.85 572.32,-463.7 577.95,-465.58 583.16,-467.47 587.93,-469.38 592.24,-471.3 596.08,-473.23 599.45,-475.16 602.32,-477.09 604.7,-479.03 606.57,-480.96 607.93,-482.89 608.77,-484.81 609.09,-486.73 608.88,-488.63 608.15,-490.53 606.9,-492.42 605.12,-494.29 602.83,-496.15 600.02,-497.99 596.7,-499.82 592.89,-501.63 588.58,-503.42 583.79,-505.19 578.53,-506.94 572.82,-508.66 566.67,-510.35 560.1,-512.01 553.12,-513.63 545.75,-515.22 538.01,-516.76 529.93,-518.26 521.53,-519.7 512.83,-521.09 503.85,-522.41 494.61,-523.67 485.16,-524.86 475.51,-525.97 465.68,-527 455.72,-527.93 445.64,-528.78 435.47,-529.52 425.25,-530.15 415.01,-530.68 404.77,-531.08 394.56,-531.37 384.41,-531.52 374.36,-531.55 364.43,-531.44 354.64,-531.19 345.04,-530.8 335.64,-530.27 326.47,-529.59 317.56,-528.76 308.94,-527.79 300.62,-526.67 292.64,-525.4 285.01,-523.99 277.76,-522.44 270.91,-520.74 264.47,-518.92 258.46,-516.97 252.9,-514.89 247.81,-512.7 243.19,-510.4 239.07,-507.99 235.44,-505.5 232.33,-502.92 229.73,-500.27 227.65,-497.55 226.1,-494.78 225.08,-491.97 224.6,-489.13 224.64,-486.26 225.22,-483.4 226.32,-480.53 227.94,-477.68"/>
<text text-anchor="middle" x="417.14" y="-481.97" font-family="sans-serif" font-size="16.00">ManejoInventariosYBodegas</text>
</g>
<!-- Inbound&#45;&gt;ManejoInventariosYBodegas -->
<g id="edge4" class="edge">
<title>Inbound&#45;&gt;ManejoInventariosYBodegas</title>
<path fill="none" stroke="black" stroke-width="2" d="M417.14,-586.16C417.14,-568.62 417.14,-548.38 417.14,-530.76"/>
<text text-anchor="middle" x="492.64" y="-554.59" font-family="sans-serif" font-size="12.00"> &#160;&#160;&#160;&#160;&#160;&#160;&#160;&#160;&#160;&#160;&#160;&#160;&#160;&#160;&#160;&#160;&#160;&#160;&#160;&#160;&#160;&#160;&#160;&#160;&#160;&#160;&#160;&#160;&#160;&#160;&#160;&#160;&#160;&#160;&#160;&#160;&#160;&#160;&#160;</text>
<polygon fill="white" stroke="transparent" points="398.14,-520.76 398.14,-539.76 414.14,-539.76 414.14,-520.76 398.14,-520.76"/>
<polyline fill="none" stroke="black" points="414.14,-520.76 414.14,-539.76 "/>
<text text-anchor="start" x="401.14" y="-527.16" font-family="sans-serif" font-size="12.00">D</text>
<polygon fill="white" stroke="transparent" points="414.14,-520.76 414.14,-539.76 436.14,-539.76 436.14,-520.76 414.14,-520.76"/>
<polygon fill="none" stroke="black" points="414.14,-520.76 414.14,-539.76 436.14,-539.76 436.14,-520.76 414.14,-520.76"/>
<text text-anchor="start" x="417.14" y="-527.16" font-family="sans-serif" font-size="12.00">CF</text>
<polygon fill="white" stroke="transparent" points="410.14,-577.16 410.14,-594.16 424.14,-594.16 424.14,-577.16 410.14,-577.16"/>
<text text-anchor="start" x="412.14" y="-582.56" font-family="sans-serif" font-size="12.00">U</text>
</g>
<!-- Outbound -->
<g id="node7" class="node">
<title>Outbound</title>
<polygon fill="none" stroke="black" stroke-width="2" points="479.41,-372.02 475.31,-374.06 471.07,-375.99 466.69,-377.82 462.2,-379.54 457.61,-381.13 452.95,-382.59 448.22,-383.92 443.44,-385.11 438.64,-386.14 433.82,-387.03 429,-387.77 424.19,-388.34 419.42,-388.76 414.69,-389.01 410.02,-389.11 405.41,-389.04 400.89,-388.81 396.45,-388.42 392.12,-387.87 387.9,-387.17 383.79,-386.32 379.82,-385.32 375.97,-384.18 372.27,-382.91 368.71,-381.51 365.31,-379.98 362.06,-378.34 358.96,-376.59 356.03,-374.74 353.26,-372.8 350.67,-370.78 348.24,-368.68 345.98,-366.51 343.89,-364.29 341.98,-362.02 340.24,-359.7 338.68,-357.36 337.29,-354.99 336.08,-352.61 335.05,-350.22 334.2,-347.83 333.53,-345.45 333.03,-343.08 332.72,-340.74 332.59,-338.43 332.64,-336.15 332.88,-333.91 333.3,-331.72 333.9,-329.58 334.69,-327.49 335.67,-325.46 336.84,-323.5 338.19,-321.6 339.74,-319.77 341.47,-318 343.4,-316.31 345.51,-314.7 347.81,-313.16 350.3,-311.69 352.98,-310.31 355.83,-309 358.87,-307.77 362.09,-306.63 365.48,-305.56 369.04,-304.57 372.76,-303.66 376.64,-302.83 380.67,-302.09 384.84,-301.42 389.15,-300.84 393.57,-300.33 398.11,-299.91 402.76,-299.57 407.49,-299.32 412.29,-299.15 417.16,-299.06 422.08,-299.06 427.03,-299.15 432,-299.32 436.96,-299.58 441.92,-299.93 446.84,-300.38 451.71,-300.91 456.51,-301.54 461.23,-302.26 465.84,-303.08 470.33,-303.99 474.69,-304.99 478.89,-306.1 482.92,-307.29 486.76,-308.59 490.4,-309.98 493.82,-311.46 497,-313.04 499.94,-314.71 502.62,-316.47 505.03,-318.31 507.17,-320.24 509.01,-322.25 510.56,-324.34 511.8,-326.5 512.74,-328.72 513.36,-331.01 513.68,-333.35 513.67,-335.74 513.36,-338.18 512.73,-340.64 511.8,-343.14 510.56,-345.65 509.02,-348.18 507.19,-350.71 505.08,-353.23 502.7,-355.73 500.05,-358.21 497.16,-360.65 494.03,-363.05 490.67,-365.4 487.11,-367.68 483.35,-369.89 479.41,-372.02"/>
<text text-anchor="middle" x="417.14" y="-336.81" font-family="sans-serif" font-size="16.00">Outbound</text>
</g>
<!-- ManejoInventariosYBodegas&#45;&gt;Outbound -->
<g id="edge5" class="edge">
<title>ManejoInventariosYBodegas&#45;&gt;Outbound</title>
<path fill="none" stroke="black" stroke-width="2" d="M417.14,-439.08C417.14,-423.2 417.14,-405.37 417.14,-389.33"/>
<text text-anchor="middle" x="492.64" y="-410.76" font-family="sans-serif" font-size="12.00"> &#160;&#160;&#160;&#160;&#160;&#160;&#160;&#160;&#160;&#160;&#160;&#160;&#160;&#160;&#160;&#160;&#160;&#160;&#160;&#160;&#160;&#160;&#160;&#160;&#160;&#160;&#160;&#160;&#160;&#160;&#160;&#160;&#160;&#160;&#160;&#160;&#160;&#160;&#160;</text>
<polygon fill="white" stroke="transparent" points="398.14,-379.33 398.14,-398.33 414.14,-398.33 414.14,-379.33 398.14,-379.33"/>
<polyline fill="none" stroke="black" points="414.14,-379.33 414.14,-398.33 "/>
<text text-anchor="start" x="401.14" y="-385.73" font-family="sans-serif" font-size="12.00">D</text>
<polygon fill="white" stroke="transparent" points="414.14,-379.33 414.14,-398.33 436.14,-398.33 436.14,-379.33 414.14,-379.33"/>
<polygon fill="none" stroke="black" points="414.14,-379.33 414.14,-398.33 436.14,-398.33 436.14,-379.33 414.14,-379.33"/>
<text text-anchor="start" x="417.14" y="-385.73" font-family="sans-serif" font-size="12.00">CF</text>
<polygon fill="white" stroke="transparent" points="410.14,-430.08 410.14,-447.08 424.14,-447.08 424.14,-430.08 410.14,-430.08"/>
<text text-anchor="start" x="412.14" y="-435.48" font-family="sans-serif" font-size="12.00">U</text>
</g>
<!-- Outbound&#45;&gt;Logistica -->
<g id="edge6" class="edge">
<title>Outbound&#45;&gt;Logistica</title>
<path fill="none" stroke="black" stroke-width="2" d="M417.14,-298.98C417.14,-279.7 417.14,-256.68 417.14,-237.21"/>
<text text-anchor="middle" x="492.64" y="-264.26" font-family="sans-serif" font-size="12.00"> &#160;&#160;&#160;&#160;&#160;&#160;&#160;&#160;&#160;&#160;&#160;&#160;&#160;&#160;&#160;&#160;&#160;&#160;&#160;&#160;&#160;&#160;&#160;&#160;&#160;&#160;&#160;&#160;&#160;&#160;&#160;&#160;&#160;&#160;&#160;&#160;&#160;&#160;&#160;</text>
<polygon fill="white" stroke="transparent" points="398.14,-227.21 398.14,-246.21 414.14,-246.21 414.14,-227.21 398.14,-227.21"/>
<polyline fill="none" stroke="black" points="414.14,-227.21 414.14,-246.21 "/>
<text text-anchor="start" x="401.14" y="-233.61" font-family="sans-serif" font-size="12.00">D</text>
<polygon fill="white" stroke="transparent" points="414.14,-227.21 414.14,-246.21 436.14,-246.21 436.14,-227.21 414.14,-227.21"/>
<polygon fill="none" stroke="black" points="414.14,-227.21 414.14,-246.21 436.14,-246.21 436.14,-227.21 414.14,-227.21"/>
<text text-anchor="start" x="417.14" y="-233.61" font-family="sans-serif" font-size="12.00">CF</text>
<polygon fill="white" stroke="transparent" points="410.14,-289.98 410.14,-306.98 424.14,-306.98 424.14,-289.98 410.14,-289.98"/>
<text text-anchor="start" x="412.14" y="-295.38" font-family="sans-serif" font-size="12.00">U</text>
</g>
<!-- Marketplace -->
<g id="node8" class="node">
<title>Marketplace</title>
<polygon fill="none" stroke="black" stroke-width="2" points="794.42,-522.82 788.88,-524.39 783.22,-525.84 777.46,-527.18 771.64,-528.4 765.77,-529.48 759.87,-530.43 753.97,-531.25 748.08,-531.91 742.23,-532.44 736.43,-532.81 730.71,-533.03 725.09,-533.1 719.57,-533.02 714.18,-532.79 708.93,-532.4 703.83,-531.86 698.9,-531.17 694.15,-530.34 689.59,-529.36 685.22,-528.24 681.06,-526.99 677.11,-525.61 673.37,-524.11 669.86,-522.49 666.57,-520.75 663.51,-518.91 660.67,-516.98 658.07,-514.95 655.69,-512.85 653.54,-510.67 651.62,-508.43 649.92,-506.13 648.44,-503.78 647.19,-501.4 646.15,-498.98 645.32,-496.55 644.71,-494.1 644.3,-491.64 644.1,-489.19 644.1,-486.75 644.3,-484.33 644.69,-481.94 645.27,-479.58 646.05,-477.26 647.01,-474.99 648.16,-472.77 649.5,-470.61 651.02,-468.51 652.72,-466.48 654.6,-464.53 656.67,-462.65 658.91,-460.85 661.33,-459.13 663.93,-457.5 666.71,-455.96 669.67,-454.5 672.79,-453.14 676.1,-451.87 679.57,-450.7 683.22,-449.62 687.03,-448.64 691,-447.75 695.14,-446.96 699.43,-446.26 703.86,-445.66 708.45,-445.15 713.16,-444.74 718.01,-444.43 722.98,-444.2 728.05,-444.07 733.22,-444.04 738.48,-444.09 743.81,-444.24 749.2,-444.47 754.64,-444.8 760.1,-445.21 765.58,-445.71 771.05,-446.3 776.5,-446.98 781.91,-447.75 787.26,-448.6 792.52,-449.53 797.69,-450.55 802.74,-451.66 807.65,-452.84 812.4,-454.11 816.96,-455.46 821.33,-456.89 825.48,-458.4 829.39,-459.98 833.05,-461.64 836.43,-463.37 839.53,-465.17 842.32,-467.03 844.79,-468.96 846.93,-470.95 848.73,-473 850.18,-475.11 851.27,-477.26 851.99,-479.45 852.34,-481.69 852.32,-483.95 851.92,-486.25 851.14,-488.57 849.99,-490.9 848.48,-493.25 846.59,-495.59 844.35,-497.94 841.76,-500.26 838.84,-502.57 835.59,-504.85 832.03,-507.1 828.17,-509.3 824.04,-511.45 819.64,-513.54 815,-515.56 810.14,-517.51 805.08,-519.37 799.83,-521.14 794.42,-522.82"/>
<text text-anchor="middle" x="740.14" y="-481.97" font-family="sans-serif" font-size="16.00">Marketplace</text>
</g>
<!-- Minoristas -->
<g id="node9" class="node">
<title>Minoristas</title>
<polygon fill="none" stroke="black" stroke-width="2" points="822.6,-636.93 821.81,-639.78 820.78,-642.6 819.51,-645.36 818.01,-648.07 816.28,-650.71 814.33,-653.27 812.16,-655.74 809.78,-658.11 807.2,-660.37 804.42,-662.51 801.46,-664.53 798.31,-666.42 794.99,-668.18 791.5,-669.79 787.87,-671.25 784.09,-672.57 780.18,-673.73 776.14,-674.74 772,-675.59 767.75,-676.29 763.42,-676.83 759,-677.21 754.53,-677.44 749.99,-677.53 745.42,-677.46 740.82,-677.25 736.2,-676.91 731.57,-676.43 726.96,-675.82 722.36,-675.09 717.79,-674.24 713.27,-673.28 708.8,-672.22 704.4,-671.06 700.08,-669.81 695.85,-668.48 691.73,-667.07 687.71,-665.58 683.82,-664.04 680.07,-662.43 676.45,-660.77 673,-659.07 669.7,-657.32 666.58,-655.54 663.64,-653.73 660.89,-651.89 658.34,-650.03 655.99,-648.15 653.85,-646.25 651.92,-644.35 650.22,-642.43 648.75,-640.51 647.51,-638.59 646.5,-636.66 645.73,-634.73 645.21,-632.81 644.92,-630.89 644.88,-628.97 645.08,-627.06 645.53,-625.15 646.22,-623.26 647.16,-621.37 648.33,-619.49 649.74,-617.63 651.38,-615.78 653.26,-613.94 655.35,-612.13 657.67,-610.33 660.2,-608.56 662.94,-606.81 665.87,-605.09 669,-603.4 672.31,-601.75 675.79,-600.14 679.44,-598.57 683.24,-597.05 687.18,-595.59 691.26,-594.19 695.46,-592.85 699.76,-591.58 704.17,-590.39 708.66,-589.28 713.22,-588.26 717.84,-587.33 722.51,-586.5 727.21,-585.78 731.93,-585.18 736.66,-584.69 741.38,-584.32 746.08,-584.08 750.75,-583.97 755.37,-584 759.94,-584.17 764.43,-584.49 768.83,-584.95 773.14,-585.56 777.33,-586.32 781.41,-587.23 785.35,-588.29 789.15,-589.5 792.79,-590.86 796.27,-592.36 799.58,-594 802.7,-595.79 805.63,-597.7 808.35,-599.74 810.88,-601.9 813.18,-604.18 815.27,-606.56 817.13,-609.04 818.77,-611.61 820.16,-614.25 821.32,-616.97 822.24,-619.74 822.91,-622.55 823.34,-625.41 823.52,-628.28 823.46,-631.17 823.15,-634.06 822.6,-636.93"/>
<text text-anchor="middle" x="734.14" y="-626.51" font-family="sans-serif" font-size="16.00">Minoristas</text>
</g>
<!-- Minoristas&#45;&gt;Marketplace -->
<g id="edge7" class="edge">
<title>Minoristas&#45;&gt;Marketplace</title>
<path fill="none" stroke="black" stroke-width="2" d="M734.22,-584.68C734.37,-573.72 734.65,-562.03 735.14,-551.19 735.41,-545.25 735.78,-539.01 736.2,-532.84"/>
<text text-anchor="middle" x="791.14" y="-554.59" font-family="sans-serif" font-size="12.00">Customer/Supplier</text>
<polygon fill="white" stroke="transparent" points="729.2,-523.84 729.2,-540.84 743.2,-540.84 743.2,-523.84 729.2,-523.84"/>
<text text-anchor="start" x="731.2" y="-529.24" font-family="sans-serif" font-size="12.00">D</text>
<polygon fill="white" stroke="transparent" points="727.22,-575.68 727.22,-592.68 741.22,-592.68 741.22,-575.68 727.22,-575.68"/>
<text text-anchor="start" x="729.22" y="-581.08" font-family="sans-serif" font-size="12.00">U</text>
</g>
<!-- RestaurantesSupermercados -->
<g id="node10" class="node">
<title>RestaurantesSupermercados</title>
<polygon fill="none" stroke="black" stroke-width="2" points="575.1,-363.55 568.29,-361.11 561.99,-358.62 556.21,-356.1 550.99,-353.55 546.34,-350.98 542.3,-348.4 538.88,-345.82 536.1,-343.24 533.97,-340.69 532.5,-338.17 531.7,-335.68 531.57,-333.23 532.12,-330.84 533.35,-328.5 535.26,-326.22 537.83,-324.02 541.07,-321.89 544.95,-319.84 549.46,-317.87 554.58,-315.99 560.3,-314.2 566.59,-312.51 573.43,-310.92 580.78,-309.42 588.63,-308.02 596.93,-306.72 605.65,-305.52 614.76,-304.42 624.23,-303.43 634.02,-302.53 644.09,-301.74 654.4,-301.04 664.91,-300.44 675.59,-299.93 686.4,-299.52 697.29,-299.21 708.23,-298.98 719.19,-298.85 730.13,-298.81 741,-298.85 751.79,-298.98 762.44,-299.19 772.95,-299.48 783.26,-299.86 793.36,-300.32 803.22,-300.86 812.81,-301.48 822.11,-302.18 831.11,-302.95 839.77,-303.8 848.08,-304.73 856.04,-305.74 863.61,-306.82 870.8,-307.98 877.59,-309.22 883.97,-310.52 889.93,-311.91 895.47,-313.37 900.59,-314.9 905.28,-316.5 909.54,-318.17 913.37,-319.92 916.76,-321.73 919.72,-323.6 922.25,-325.54 924.35,-327.54 926.02,-329.6 927.27,-331.71 928.1,-333.87 928.51,-336.08 928.5,-338.33 928.09,-340.61 927.26,-342.93 926.03,-345.27 924.4,-347.62 922.37,-349.99 919.94,-352.36 917.12,-354.73 913.91,-357.09 910.32,-359.42 906.35,-361.73 902,-364.01 897.28,-366.24 892.18,-368.41 886.73,-370.52 880.91,-372.56 874.74,-374.52 868.22,-376.4 861.36,-378.17 854.17,-379.85 846.65,-381.41 838.82,-382.85 830.7,-384.16 822.28,-385.34 813.58,-386.38 804.63,-387.28 795.43,-388.02 786.01,-388.62 776.38,-389.05 766.57,-389.33 756.59,-389.44 746.47,-389.39 736.24,-389.18 725.93,-388.8 715.56,-388.26 705.16,-387.56 694.76,-386.7 684.39,-385.68 674.1,-384.52 663.9,-383.2 653.84,-381.75 643.94,-380.17 634.26,-378.45 624.81,-376.62 615.64,-374.67 606.77,-372.62 598.26,-370.47 590.12,-368.24 582.39,-365.93 575.1,-363.55"/>
<text text-anchor="middle" x="742.14" y="-336.81" font-family="sans-serif" font-size="16.00">RestaurantesSupermercados</text>
</g>
<!-- RestaurantesSupermercados&#45;&gt;Logistica -->
<g id="edge8" class="edge">
<title>RestaurantesSupermercados&#45;&gt;Logistica</title>
<path fill="none" stroke="black" stroke-width="2" d="M659.38,-300.61C631.73,-287.75 600.69,-273.51 572.14,-260.86 545.02,-248.83 515.04,-236.01 488.73,-224.91"/>
<text text-anchor="middle" x="675.64" y="-264.26" font-family="sans-serif" font-size="12.00"> &#160;&#160;&#160;&#160;&#160;&#160;&#160;&#160;&#160;&#160;&#160;&#160;&#160;&#160;&#160;&#160;&#160;&#160;&#160;&#160;&#160;&#160;&#160;&#160;&#160;&#160;&#160;&#160;&#160;&#160;&#160;&#160;&#160;&#160;&#160;&#160;&#160;&#160;&#160;</text>
<polygon fill="white" stroke="transparent" points="469.73,-214.91 469.73,-233.91 485.73,-233.91 485.73,-214.91 469.73,-214.91"/>
<polyline fill="none" stroke="black" points="485.73,-214.91 485.73,-233.91 "/>
<text text-anchor="start" x="472.73" y="-221.31" font-family="sans-serif" font-size="12.00">D</text>
<polygon fill="white" stroke="transparent" points="485.73,-214.91 485.73,-233.91 507.73,-233.91 507.73,-214.91 485.73,-214.91"/>
<polygon fill="none" stroke="black" points="485.73,-214.91 485.73,-233.91 507.73,-233.91 507.73,-214.91 485.73,-214.91"/>
<text text-anchor="start" x="488.73" y="-221.31" font-family="sans-serif" font-size="12.00">CF</text>
<polygon fill="white" stroke="transparent" points="652.38,-291.61 652.38,-308.61 666.38,-308.61 666.38,-291.61 652.38,-291.61"/>
<text text-anchor="start" x="654.38" y="-297.01" font-family="sans-serif" font-size="12.00">U</text>
</g>
<!-- ServicioAlCliente -->
<g id="node11" class="node">
<title>ServicioAlCliente</title>
<polygon fill="none" stroke="black" stroke-width="2" points="876.09,-482.98 876.5,-480.12 877.26,-477.28 878.37,-474.48 879.82,-471.72 881.62,-469.03 883.76,-466.4 886.23,-463.86 889.02,-461.4 892.14,-459.05 895.56,-456.8 899.29,-454.66 903.31,-452.65 907.6,-450.77 912.17,-449.02 916.99,-447.41 922.06,-445.94 927.35,-444.62 932.86,-443.45 938.56,-442.42 944.45,-441.55 950.51,-440.83 956.72,-440.26 963.05,-439.84 969.51,-439.56 976.06,-439.43 982.69,-439.44 989.37,-439.58 996.1,-439.86 1002.85,-440.27 1009.61,-440.8 1016.35,-441.44 1023.05,-442.2 1029.7,-443.07 1036.28,-444.03 1042.77,-445.09 1049.15,-446.23 1055.41,-447.46 1061.52,-448.76 1067.47,-450.13 1073.24,-451.56 1078.83,-453.06 1084.2,-454.6 1089.35,-456.19 1094.26,-457.83 1098.92,-459.5 1103.32,-461.21 1107.44,-462.95 1111.27,-464.72 1114.81,-466.51 1118.04,-468.32 1120.96,-470.15 1123.55,-471.99 1125.81,-473.85 1127.74,-475.72 1129.33,-477.6 1130.57,-479.49 1131.46,-481.39 1132.01,-483.29 1132.2,-485.2 1132.05,-487.11 1131.54,-489.02 1130.69,-490.94 1129.49,-492.85 1127.95,-494.76 1126.07,-496.67 1123.86,-498.57 1121.32,-500.46 1118.47,-502.35 1115.3,-504.22 1111.84,-506.07 1108.08,-507.9 1104.04,-509.71 1099.74,-511.5 1095.17,-513.25 1090.36,-514.96 1085.31,-516.63 1080.05,-518.25 1074.58,-519.82 1068.93,-521.33 1063.1,-522.77 1057.11,-524.14 1050.97,-525.44 1044.72,-526.65 1038.35,-527.77 1031.89,-528.79 1025.36,-529.7 1018.77,-530.51 1012.13,-531.2 1005.48,-531.76 998.83,-532.2 992.18,-532.51 985.57,-532.67 979.01,-532.7 972.52,-532.58 966.11,-532.31 959.8,-531.89 953.62,-531.31 947.56,-530.58 941.66,-529.7 935.93,-528.66 930.38,-527.47 925.03,-526.12 919.89,-524.63 914.98,-523 910.31,-521.22 905.89,-519.31 901.74,-517.27 897.86,-515.11 894.27,-512.83 890.98,-510.45 888,-507.97 885.33,-505.4 882.99,-502.76 880.98,-500.04 879.3,-497.27 877.96,-494.46 876.97,-491.61 876.33,-488.74 876.03,-485.86 876.09,-482.98"/>
<text text-anchor="middle" x="1004.14" y="-481.97" font-family="sans-serif" font-size="16.00">ServicioAlCliente</text>
</g>
<!-- Storefront -->
<g id="node12" class="node">
<title>Storefront</title>
<polygon fill="none" stroke="black" stroke-width="2" points="1053.12,-640.72 1051.84,-643.54 1050.33,-646.3 1048.6,-649.01 1046.65,-651.65 1044.48,-654.21 1042.11,-656.68 1039.55,-659.05 1036.79,-661.32 1033.85,-663.46 1030.74,-665.49 1027.46,-667.38 1024.03,-669.13 1020.45,-670.74 1016.74,-672.2 1012.9,-673.5 1008.95,-674.65 1004.89,-675.64 1000.74,-676.48 996.5,-677.15 992.2,-677.66 987.83,-678.01 983.42,-678.21 978.97,-678.25 974.49,-678.14 970,-677.87 965.5,-677.47 961.01,-676.93 956.54,-676.25 952.09,-675.44 947.69,-674.52 943.34,-673.47 939.05,-672.32 934.84,-671.07 930.71,-669.72 926.67,-668.29 922.74,-666.77 918.92,-665.19 915.23,-663.53 911.67,-661.82 908.25,-660.06 904.98,-658.25 901.87,-656.39 898.93,-654.51 896.17,-652.6 893.59,-650.66 891.2,-648.71 889.01,-646.74 887.03,-644.76 885.25,-642.78 883.69,-640.79 882.35,-638.81 881.24,-636.82 880.35,-634.85 879.7,-632.88 879.28,-630.93 879.09,-628.98 879.15,-627.05 879.44,-625.13 879.98,-623.23 880.76,-621.35 881.77,-619.49 883.02,-617.64 884.5,-615.82 886.22,-614.02 888.16,-612.24 890.33,-610.49 892.71,-608.77 895.31,-607.07 898.11,-605.41 901.12,-603.78 904.31,-602.19 907.68,-600.64 911.23,-599.13 914.95,-597.68 918.81,-596.27 922.82,-594.92 926.96,-593.62 931.23,-592.4 935.59,-591.24 940.06,-590.16 944.61,-589.16 949.22,-588.24 953.9,-587.42 958.61,-586.69 963.36,-586.07 968.11,-585.55 972.87,-585.15 977.61,-584.86 982.33,-584.7 987,-584.66 991.62,-584.76 996.17,-584.99 1000.63,-585.35 1005,-585.86 1009.26,-586.51 1013.39,-587.31 1017.39,-588.24 1021.25,-589.33 1024.95,-590.56 1028.48,-591.93 1031.83,-593.44 1034.99,-595.09 1037.96,-596.87 1040.72,-598.78 1043.27,-600.82 1045.6,-602.98 1047.71,-605.25 1049.58,-607.62 1051.22,-610.09 1052.62,-612.64 1053.78,-615.27 1054.69,-617.98 1055.36,-620.73 1055.78,-623.54 1055.95,-626.38 1055.87,-629.25 1055.55,-632.13 1054.98,-635.01 1054.17,-637.88 1053.12,-640.72"/>
<text text-anchor="middle" x="967.14" y="-626.51" font-family="sans-serif" font-size="16.00">Storefront</text>
</g>
<!-- Storefront&#45;&gt;Marketplace -->
<g id="edge9" class="edge">
<title>Storefront&#45;&gt;Marketplace</title>
<path fill="none" stroke="black" stroke-width="2" d="M917.77,-596.61C896.2,-582.47 870.53,-565.83 847.14,-551.19 831.52,-541.41 814.48,-531.02 798.68,-521.51"/>
<text text-anchor="middle" x="923.14" y="-554.59" font-family="sans-serif" font-size="12.00">Customer/Supplier</text>
<polygon fill="white" stroke="transparent" points="791.68,-512.51 791.68,-529.51 805.68,-529.51 805.68,-512.51 791.68,-512.51"/>
<text text-anchor="start" x="793.68" y="-517.91" font-family="sans-serif" font-size="12.00">D</text>
<polygon fill="white" stroke="transparent" points="910.77,-587.61 910.77,-604.61 924.77,-604.61 924.77,-587.61 910.77,-587.61"/>
<text text-anchor="start" x="912.77" y="-593.01" font-family="sans-serif" font-size="12.00">U</text>
</g>
<!-- Storefront&#45;&gt;ServicioAlCliente -->
<g id="edge10" class="edge">
<title>Storefront&#45;&gt;ServicioAlCliente</title>
<path fill="none" stroke="black" stroke-width="2" d="M978.75,-584.6C983.03,-568.11 987.89,-549.4 992.2,-532.8"/>
<text text-anchor="middle" x="1061.64" y="-554.59" font-family="sans-serif" font-size="12.00"> &#160;&#160;&#160;&#160;&#160;&#160;&#160;&#160;&#160;&#160;&#160;&#160;&#160;&#160;&#160;&#160;&#160;&#160;&#160;&#160;&#160;&#160;&#160;&#160;&#160;&#160;&#160;&#160;&#160;&#160;&#160;&#160;&#160;&#160;&#160;&#160;&#160;&#160;&#160;</text>
<polygon fill="white" stroke="transparent" points="969.2,-522.8 969.2,-541.8 985.2,-541.8 985.2,-522.8 969.2,-522.8"/>
<polyline fill="none" stroke="black" points="985.2,-522.8 985.2,-541.8 "/>
<text text-anchor="start" x="972.2" y="-529.2" font-family="sans-serif" font-size="12.00">D</text>
<polygon fill="white" stroke="transparent" points="985.2,-522.8 985.2,-541.8 1015.2,-541.8 1015.2,-522.8 985.2,-522.8"/>
<polygon fill="none" stroke="black" points="985.2,-522.8 985.2,-541.8 1015.2,-541.8 1015.2,-522.8 985.2,-522.8"/>
<text text-anchor="start" x="988.2" y="-529.2" font-family="sans-serif" font-size="12.00">ACL</text>
<polygon fill="white" stroke="transparent" points="971.75,-575.6 971.75,-592.6 985.75,-592.6 985.75,-575.6 971.75,-575.6"/>
<text text-anchor="start" x="973.75" y="-581" font-family="sans-serif" font-size="12.00">U</text>
</g>
</g>
</svg>
